# Blender v2.80 (sub 35) OBJ File: 'Bus (split meshes).blend'
# www.blender.org
mtllib Bus Windows.mtl
o Windows_Cube.001
v -0.964865 2.209998 -3.876327
v -0.806255 2.200882 -4.026186
v -0.964865 2.209998 3.206584
v -0.723028 2.201746 3.483336
v -0.723027 1.060772 4.089084
v -0.997436 0.552549 0.303414
v -0.997436 0.550741 -0.715097
v -0.964865 2.209998 -2.952187
v -0.964865 2.209998 -1.827963
v -0.964865 2.209998 -0.903990
v -0.964865 2.209998 0.220512
v -0.964865 2.209998 1.144097
v -0.964865 2.209998 2.269096
v -0.806255 1.400614 -4.026186
v -0.964865 1.444709 -3.876327
v -0.964865 1.444709 3.544039
v -0.723027 1.409818 3.961114
v -0.964865 1.444709 2.377386
v -0.964865 1.444709 1.234339
v -0.964865 1.444709 0.292705
v -0.964865 1.444709 -0.849845
v -0.964865 1.444709 -1.791866
v -0.964865 1.444709 -2.934138
v -0.964865 2.209998 2.168100
v -0.964865 2.209998 -2.852159
v -0.964865 2.209998 -1.928075
v -0.964865 2.209998 1.244790
v -0.964865 1.444709 2.276390
v -0.964865 1.444709 1.335032
v -0.964865 1.444709 -1.891978
v -0.964865 1.444709 -2.834111
v -0.997436 2.238678 -0.834521
v -0.997436 2.236870 0.144523
v -0.997436 1.392537 0.224173
v -0.997436 1.396214 -0.774915
v -0.964865 2.209998 -3.486632
v -0.964865 2.209998 -3.178586
v -0.964865 1.444709 -3.164958
v -0.964865 1.444709 -3.479022
v -0.964865 2.209998 -2.622161
v -0.964865 2.209998 -2.314133
v -0.964865 1.444709 -2.285576
v -0.964865 1.444709 -2.599620
v -0.964865 2.209998 1.632665
v -0.964865 2.209998 1.940434
v -0.964865 1.444709 2.044274
v -0.964865 1.444709 1.730489
v -0.964865 2.209998 2.337797
v -0.964865 2.209998 2.598239
v -0.964865 1.444709 2.611326
v -0.964865 1.444709 2.447431
v -0.806255 1.015277 -4.026186
v -0.997436 0.959893 0.264987
v -0.997436 0.963570 -0.744305
v -0.723027 1.334266 4.008127
v -0.997436 0.550741 -0.226219
v -0.997436 2.238678 -0.365547
v -0.997436 0.552549 -0.181769
v -0.997436 2.236870 -0.320798
v -0.997436 1.392956 -0.295739
v -0.997436 0.960311 -0.260027
v -0.997436 1.396612 -0.251441
v -0.997436 0.963968 -0.215729
v 0.964865 2.209998 -3.876327
v 0.806255 2.200882 -4.026186
v 0.964865 2.209998 3.206584
v 0.723028 2.201746 3.483336
v 0.723027 1.060772 4.089084
v 0.997436 0.552549 0.303414
v 0.997436 0.550741 -0.715097
v 0.964865 2.209998 -2.952187
v 0.964865 2.209998 -1.827963
v 0.964865 2.209998 -0.903990
v 0.964865 2.209998 0.220512
v 0.964865 2.209998 1.144097
v 0.964865 2.209998 2.269096
v 0.806255 1.400614 -4.026186
v 0.964865 1.444709 -3.876327
v 0.964865 1.444709 3.544039
v 0.723027 1.409818 3.961114
v 0.964865 1.444709 2.377387
v 0.964865 1.444709 1.234339
v 0.964865 1.444709 0.292705
v 0.964865 1.444709 -0.849845
v 0.964865 1.444709 -1.791867
v 0.964865 1.444710 -2.934139
v 0.964865 2.209998 2.168100
v 0.964865 2.209998 -2.852159
v 0.964865 2.209998 -1.928075
v 0.964865 2.209998 1.244790
v 0.964865 1.444709 2.276390
v 0.964865 1.444709 1.335032
v 0.964865 1.444709 -1.891978
v 0.964865 1.444709 -2.834111
v 0.997436 2.238678 -0.834521
v 0.997436 2.236870 0.144523
v 0.997436 1.392537 0.224173
v 0.997436 1.396214 -0.774915
v 0.964865 2.209998 -3.486632
v 0.964865 2.209998 -3.178586
v 0.964865 1.444709 -3.164958
v 0.964865 1.444709 -3.479022
v 0.964865 2.209998 -2.622161
v 0.964865 2.209998 -2.314133
v 0.964865 1.444709 -2.285576
v 0.964865 1.444709 -2.599620
v 0.964865 2.209998 1.632665
v 0.964865 2.209998 1.940434
v 0.964865 1.444709 2.044275
v 0.964865 1.444709 1.730489
v 0.964865 2.209998 2.337797
v 0.964865 2.209998 2.598239
v 0.964865 1.444709 2.611326
v 0.964865 1.444709 2.447431
v 0.806255 1.015277 -4.026186
v 0.997436 0.959893 0.264987
v 0.997436 0.963570 -0.744305
v 0.723027 1.334266 4.008127
v 0.000000 2.200882 -4.026186
v 0.000000 1.400614 -4.026186
v -0.000000 1.015277 -4.026186
v -0.000000 1.060772 4.089915
v 0.000000 1.334266 4.008730
v 0.000000 2.201746 3.483308
v 0.000000 1.409819 3.961654
v 0.997436 0.550741 -0.226219
v 0.997436 2.238678 -0.365547
v 0.997436 0.552549 -0.181769
v 0.997436 2.236870 -0.320798
v 0.997436 1.392956 -0.295739
v 0.997436 0.960311 -0.260027
v 0.997436 1.396612 -0.251441
v 0.997436 0.963968 -0.215729
vt 0.040984 0.886041
vt 0.122350 0.886041
vt 0.122350 0.967407
vt 0.040984 0.967407
vt 0.040984 0.886041
vt 0.122350 0.886041
vt 0.122350 0.967407
vt 0.040984 0.967407
vt 0.040984 0.886041
vt 0.122350 0.886041
vt 0.122350 0.967407
vt 0.040984 0.967407
vt 0.040984 0.886041
vt 0.122350 0.886041
vt 0.122350 0.967407
vt 0.040984 0.967407
vt 0.040984 0.886041
vt 0.122350 0.886041
vt 0.122350 0.967407
vt 0.040984 0.967407
vt 0.040984 0.886041
vt 0.122350 0.886041
vt 0.122350 0.967407
vt 0.040984 0.967407
vt 0.040984 0.886041
vt 0.122350 0.886041
vt 0.122350 0.967407
vt 0.040984 0.967407
vt 0.040984 0.886041
vt 0.122350 0.886041
vt 0.122350 0.967407
vt 0.040984 0.967407
vt 0.040984 0.886041
vt 0.122350 0.886041
vt 0.122350 0.967407
vt 0.040984 0.967407
vt 0.040984 0.886041
vt 0.122350 0.886041
vt 0.122350 0.967407
vt 0.040984 0.967407
vt 0.040984 0.886041
vt 0.122350 0.886041
vt 0.122350 0.967407
vt 0.040984 0.967407
vt 0.040984 0.886041
vt 0.122350 0.886041
vt 0.122350 0.967407
vt 0.040984 0.967407
vt 0.040984 0.886041
vt 0.122350 0.886041
vt 0.122350 0.967407
vt 0.040984 0.967407
vt 0.040984 0.886041
vt 0.122350 0.886041
vt 0.122350 0.967407
vt 0.040984 0.967407
vt 0.040984 0.886041
vt 0.122350 0.886041
vt 0.122350 0.967407
vt 0.040984 0.967407
vt 0.040984 0.886041
vt 0.122350 0.886041
vt 0.122350 0.967407
vt 0.040984 0.967407
vt 0.040984 0.886041
vt 0.122350 0.886041
vt 0.122350 0.967407
vt 0.040984 0.967407
vt 0.040984 0.886041
vt 0.122350 0.886041
vt 0.122350 0.967407
vt 0.040984 0.967407
vt 0.040984 0.886041
vt 0.122350 0.886041
vt 0.122350 0.967407
vt 0.040984 0.967407
vt 0.040984 0.886041
vt 0.122350 0.886041
vt 0.122350 0.967407
vt 0.040984 0.967407
vt 0.040984 0.886041
vt 0.122350 0.886041
vt 0.122350 0.967407
vt 0.040984 0.967407
vt 0.040984 0.886041
vt 0.122350 0.886041
vt 0.122350 0.967407
vt 0.040984 0.967407
vt 0.040984 0.886041
vt 0.122350 0.886041
vt 0.122350 0.967407
vt 0.040984 0.967407
vt 0.122350 0.886041
vt 0.122350 0.967407
vt 0.040984 0.967407
vt 0.040984 0.886041
vt 0.122350 0.886041
vt 0.122350 0.967407
vt 0.040984 0.967407
vt 0.122350 0.886041
vt 0.122350 0.967407
vt 0.040984 0.967407
vt 0.040984 0.886041
vt 0.122350 0.886041
vt 0.122350 0.967407
vt 0.040984 0.967407
vt 0.040984 0.886041
vt 0.122350 0.886041
vt 0.040984 0.967407
vt 0.040984 0.886041
vt 0.122350 0.886041
vt 0.122350 0.967407
vt 0.040984 0.967407
vt 0.040984 0.886041
vt 0.122350 0.886041
vt 0.122350 0.967407
vt 0.040984 0.967407
vt 0.040984 0.886041
vt 0.122350 0.886041
vt 0.122350 0.967407
vt 0.040984 0.967407
vt 0.040984 0.886041
vt 0.122350 0.886041
vt 0.122350 0.967407
vt 0.040984 0.967407
vt 0.040984 0.886041
vt 0.122350 0.886041
vt 0.122350 0.967407
vt 0.040984 0.967407
vt 0.040984 0.886041
vt 0.122350 0.886041
vt 0.040984 0.967407
vt 0.122350 0.886041
vt 0.122350 0.967407
vt 0.040984 0.967407
vt 0.040984 0.886041
vt 0.122350 0.886041
vt 0.122350 0.967407
vt 0.040984 0.967407
vt 0.040984 0.886041
vt 0.122350 0.886041
vt 0.122350 0.967407
vt 0.040984 0.967407
vt 0.040984 0.886041
vt 0.122350 0.886041
vt 0.122350 0.967407
vt 0.040984 0.967407
vt 0.040984 0.886041
vt 0.122350 0.886041
vt 0.122350 0.967407
vt 0.040984 0.967407
vt 0.040984 0.886041
vt 0.122350 0.886041
vt 0.122350 0.967407
vt 0.040984 0.967407
vt 0.040984 0.886041
vt 0.122350 0.886041
vt 0.122350 0.967407
vt 0.040984 0.967407
vt 0.040984 0.886041
vt 0.122350 0.886041
vt 0.122350 0.967407
vt 0.040984 0.967407
vt 0.040984 0.886041
vt 0.122350 0.886041
vt 0.122350 0.967407
vt 0.040984 0.967407
vt 0.122350 0.886041
vt 0.122350 0.967407
vt 0.040984 0.967407
vt 0.040984 0.886041
vt 0.122350 0.886041
vt 0.122350 0.967407
vt 0.040984 0.967407
vt 0.040984 0.886041
vt 0.122350 0.886041
vt 0.122350 0.967407
vt 0.040984 0.967407
vt 0.040984 0.886041
vt 0.122350 0.886041
vt 0.122350 0.967407
vt 0.040984 0.967407
vt 0.040984 0.886041
vt 0.122350 0.886041
vt 0.122350 0.967407
vt 0.040984 0.967407
vt 0.122350 0.886041
vt 0.122350 0.967407
vt 0.040984 0.967407
vt 0.040984 0.886041
vt 0.122350 0.886041
vt 0.122350 0.967407
vt 0.040984 0.967407
vn -0.0003 0.5168 0.8561
vn -1.0000 0.0000 0.0000
vn 0.0000 0.0000 -1.0000
vn -0.0007 0.5286 0.8489
vn -0.0010 0.2842 0.9588
vn 0.0003 0.5168 0.8561
vn 1.0000 0.0000 0.0000
vn 0.0007 0.5286 0.8489
vn 0.0010 0.2842 0.9588
usemtl Mapped_colors
s off
f 125/1/1 124/2/1 4/3/1 17/4/1
f 39/5/2 36/6/2 1/7/2 15/8/2
f 14/9/3 2/10/3 119/11/3 120/12/3
f 51/13/2 48/14/2 13/15/2 18/16/2
f 47/17/2 44/18/2 27/19/2 29/20/2
f 19/21/2 12/22/2 11/23/2 20/24/2
f 21/25/2 10/26/2 9/27/2 22/28/2
f 43/29/2 40/30/2 25/31/2 31/32/2
f 52/33/3 14/34/3 120/35/3 121/36/3
f 123/37/4 125/38/4 17/39/4 55/40/4
f 23/41/2 8/42/2 37/43/2 38/44/2
f 38/45/2 37/46/2 36/47/2 39/48/2
f 30/49/2 26/50/2 41/51/2 42/52/2
f 42/53/2 41/54/2 40/55/2 43/56/2
f 28/57/2 24/58/2 45/59/2 46/60/2
f 46/61/2 45/62/2 44/63/2 47/64/2
f 16/65/2 3/66/2 49/67/2 50/68/2
f 50/69/2 49/70/2 48/71/2 51/72/2
f 122/73/5 123/74/5 55/75/5 5/76/5
f 35/77/2 60/78/2 57/79/2 32/80/2
f 59/81/2 62/82/2 34/83/2 33/84/2
f 54/85/2 61/86/2 60/87/2 35/88/2
f 53/89/2 34/90/2 62/91/2 63/92/2
f 53/89/2 63/93/2 58/94/2 6/95/2
f 7/96/2 56/97/2 61/98/2 54/99/2
f 125/1/6 80/100/6 67/101/6 124/102/6
f 102/103/7 78/104/7 64/105/7 99/106/7
f 77/107/3 120/108/3 119/11/3 65/109/3
f 114/110/7 81/111/7 76/112/7 111/113/7
f 110/114/7 92/115/7 90/116/7 107/117/7
f 82/118/7 83/119/7 74/120/7 75/121/7
f 84/122/7 85/123/7 72/124/7 73/125/7
f 106/126/7 94/127/7 88/128/7 103/129/7
f 115/130/3 121/131/3 120/35/3 77/132/3
f 123/37/8 118/133/8 80/134/8 125/135/8
f 86/136/7 101/137/7 100/138/7 71/139/7
f 101/140/7 102/141/7 99/142/7 100/143/7
f 93/144/7 105/145/7 104/146/7 89/147/7
f 105/148/7 106/149/7 103/150/7 104/151/7
f 91/152/7 109/153/7 108/154/7 87/155/7
f 109/156/7 110/157/7 107/158/7 108/159/7
f 79/160/7 113/161/7 112/162/7 66/163/7
f 113/164/7 114/165/7 111/166/7 112/167/7
f 122/73/9 68/168/9 118/169/9 123/170/9
f 98/171/7 95/172/7 127/173/7 130/174/7
f 129/175/7 96/176/7 97/177/7 132/178/7
f 117/179/7 98/180/7 130/181/7 131/182/7
f 116/183/7 133/184/7 132/185/7 97/186/7
f 116/183/7 69/187/7 128/188/7 133/189/7
f 70/190/7 117/191/7 131/192/7 126/193/7
