# Blender v2.80 (sub 35) OBJ File: 'LD 43 3d Models.blend'
# www.blender.org
mtllib Mailbox text.mtl
o Text.001_CUText.001
v -0.518202 2.547613 -1.013549
v -0.453986 2.547613 -1.013549
v -0.453986 2.100790 -1.005749
v -0.720024 2.100790 -1.005749
v -0.720024 2.158445 -1.006756
v -0.518202 2.158445 -1.006756
v 0.242560 2.547613 -1.013549
v 0.302189 2.547613 -1.013549
v 0.450934 2.364166 -1.010347
v 0.599024 2.547613 -1.013549
v 0.659308 2.547613 -1.013549
v 0.659308 2.100790 -1.005750
v 0.595092 2.100790 -1.005750
v 0.595092 2.448683 -1.011822
v 0.593782 2.448683 -1.011822
v 0.456176 2.275719 -1.008803
v 0.445692 2.275719 -1.008803
v 0.308086 2.448683 -1.011822
v 0.306776 2.448683 -1.011822
v 0.306776 2.100790 -1.005750
v 0.242560 2.100790 -1.005750
v -0.041825 2.550233 -1.013595
v 0.003388 2.550233 -1.013595
v 0.195381 2.100790 -1.005750
v 0.129854 2.100790 -1.005749
v 0.073502 2.232478 -1.008048
v -0.116525 2.232478 -1.008048
v -0.176154 2.100790 -1.005749
v -0.241681 2.100790 -1.005749
v -0.018235 2.451959 -1.011879
v -0.090315 2.290133 -1.009054
v 0.048601 2.290133 -1.009054
v -0.355697 2.547613 -1.013549
v -0.291481 2.547613 -1.013549
v -0.291481 2.100790 -1.005749
v -0.355697 2.100790 -1.005749
v 0.496518 2.547613 1.011022
v 0.432302 2.547613 1.011022
v 0.432302 2.100790 1.003223
v 0.698339 2.100790 1.003223
v 0.698339 2.158445 1.004229
v 0.496518 2.158445 1.004229
v -0.264244 2.547613 1.011022
v -0.323874 2.547613 1.011022
v -0.472619 2.364167 1.007820
v -0.620708 2.547613 1.011022
v -0.680993 2.547613 1.011022
v -0.680993 2.100790 1.003223
v -0.616777 2.100790 1.003223
v -0.616777 2.448683 1.009295
v -0.615466 2.448683 1.009295
v -0.477861 2.275719 1.006276
v -0.467377 2.275719 1.006276
v -0.329771 2.448683 1.009295
v -0.328460 2.448683 1.009295
v -0.328460 2.100790 1.003223
v -0.264244 2.100790 1.003223
v 0.020140 2.550233 1.011068
v -0.025073 2.550233 1.011068
v -0.217065 2.100790 1.003223
v -0.151539 2.100790 1.003223
v -0.095186 2.232479 1.005522
v 0.094840 2.232479 1.005522
v 0.154470 2.100790 1.003223
v 0.219996 2.100790 1.003223
v -0.003449 2.451959 1.009353
v 0.068630 2.290133 1.006528
v -0.070286 2.290133 1.006528
v 0.334012 2.547613 1.011022
v 0.269796 2.547613 1.011022
v 0.269796 2.100790 1.003223
v 0.334012 2.100790 1.003223
vt 0.106275 0.925291
vt 0.124983 0.918482
vt 0.134938 0.901240
vt 0.131480 0.881634
vt 0.116229 0.868836
vt 0.096320 0.868836
vt 0.081069 0.881634
vt 0.077612 0.901240
vt 0.087566 0.918482
vt 0.106275 0.925291
vt 0.131480 0.910739
vt 0.131480 0.881634
vt 0.106275 0.867081
vt 0.081069 0.881634
vt 0.081069 0.910739
vt 0.106275 0.925291
vt 0.131480 0.910739
vt 0.131480 0.881634
vt 0.106275 0.867081
vt 0.081069 0.881634
vt 0.081069 0.910739
vt 0.106275 0.925291
vt 0.118113 0.922775
vt 0.127904 0.915661
vt 0.133955 0.905180
vt 0.135220 0.893144
vt 0.131480 0.881634
vt 0.123382 0.872640
vt 0.112326 0.867717
vt 0.100223 0.867717
vt 0.089167 0.872640
vt 0.081069 0.881634
vt 0.077329 0.893144
vt 0.078594 0.905180
vt 0.084645 0.915661
vt 0.094437 0.922775
vt 0.077170 0.867081
vt 0.135380 0.867081
vt 0.135380 0.925291
vt 0.077170 0.925291
vt 0.106275 0.925291
vt 0.124983 0.918482
vt 0.134938 0.901240
vt 0.131480 0.881634
vt 0.116229 0.868836
vt 0.096320 0.868836
vt 0.081069 0.881634
vt 0.077612 0.901240
vt 0.087566 0.918482
vt 0.106275 0.925291
vt 0.131480 0.910739
vt 0.131480 0.881634
vt 0.106275 0.867081
vt 0.081069 0.881634
vt 0.081069 0.910739
vt 0.106275 0.925291
vt 0.131480 0.910739
vt 0.131480 0.881634
vt 0.106275 0.867081
vt 0.081069 0.881634
vt 0.081069 0.910739
vt 0.106275 0.925291
vt 0.118113 0.922775
vt 0.127904 0.915661
vt 0.133955 0.905180
vt 0.135220 0.893144
vt 0.131480 0.881634
vt 0.123382 0.872640
vt 0.112326 0.867717
vt 0.100223 0.867717
vt 0.089167 0.872640
vt 0.081069 0.881634
vt 0.077329 0.893144
vt 0.078594 0.905180
vt 0.084645 0.915661
vt 0.094437 0.922775
vt 0.077170 0.867081
vt 0.135380 0.867081
vt 0.135380 0.925291
vt 0.077170 0.925291
vn -0.0000 -0.0175 -0.9998
vn 0.0000 -0.0175 0.9998
usemtl Material.001
s off
f 28/1/1 29/2/1 31/3/1 32/4/1 30/5/1 24/6/1 25/7/1 26/8/1 27/9/1
f 6/10/1 1/11/1 2/12/1 3/13/1 4/14/1 5/15/1
f 29/16/1 22/17/1 23/18/1 24/19/1 30/20/1 31/21/1
f 21/22/1 7/23/1 8/24/1 9/25/1 10/26/1 11/27/1 12/28/1 13/29/1 14/30/1 15/31/1 16/32/1 17/33/1 18/34/1 19/35/1 20/36/1
f 35/37/1 36/38/1 33/39/1 34/40/1
f 64/41/2 65/42/2 67/43/2 68/44/2 66/45/2 60/46/2 61/47/2 62/48/2 63/49/2
f 42/50/2 37/51/2 38/52/2 39/53/2 40/54/2 41/55/2
f 65/56/2 58/57/2 59/58/2 60/59/2 66/60/2 67/61/2
f 57/62/2 43/63/2 44/64/2 45/65/2 46/66/2 47/67/2 48/68/2 49/69/2 50/70/2 51/71/2 52/72/2 53/73/2 54/74/2 55/75/2 56/76/2
f 71/77/2 72/78/2 69/79/2 70/80/2
