# Blender v2.80 (sub 35) OBJ File: 'LD 43 3d Models.blend'
# www.blender.org
mtllib Hydrant Cap.mtl
o Cap_Cylinder.004
v -1.408377 1.914255 -0.646910
v -1.408377 1.537075 -0.524356
v -1.408377 1.303964 -0.203507
v -1.408377 1.303964 0.193084
v -1.408377 1.537075 0.513933
v -1.408377 1.914255 0.636487
v -1.408377 2.291436 0.513933
v -1.408377 2.524547 0.193084
v -1.408377 2.524547 -0.203507
v -1.408377 2.291436 -0.524356
v -1.408377 1.914255 -0.551206
v -1.408377 1.593328 -0.446931
v -1.408377 1.394983 -0.173933
v -1.408377 1.394983 0.163510
v -1.408377 1.593328 0.436508
v -1.408377 1.914255 0.540784
v -1.408377 2.235183 0.436508
v -1.408377 2.433527 0.163510
v -1.408377 2.433527 -0.173933
v -1.408377 2.235183 -0.446931
v -1.506623 1.914255 -0.646910
v -1.506623 1.537075 -0.524356
v -1.506623 1.303964 -0.203507
v -1.506623 1.303964 0.193084
v -1.506623 1.537075 0.513933
v -1.506623 1.914255 0.636487
v -1.506623 2.291436 0.513933
v -1.506623 2.524547 0.193084
v -1.506623 2.524547 -0.203507
v -1.506623 2.291436 -0.524356
v -1.506623 1.914255 -0.551206
v -1.506623 1.593328 -0.446931
v -1.506623 1.394983 -0.173933
v -1.506623 1.394983 0.163510
v -1.506623 1.593328 0.436508
v -1.506623 1.914255 0.540784
v -1.506623 2.235183 0.436508
v -1.506623 2.433527 0.163510
v -1.506623 2.433527 -0.173933
v -1.506623 2.235183 -0.446931
v -1.585076 1.917762 -0.606105
v -1.585076 1.553115 -0.487624
v -1.585076 1.327752 -0.177438
v -1.585076 1.327752 0.205974
v -1.585076 1.553115 0.516160
v -1.585076 1.917762 0.634641
v -1.585076 2.282408 0.516160
v -1.585076 2.507772 0.205974
v -1.585076 2.507772 -0.177438
v -1.585076 2.282408 -0.487625
v -1.585076 1.917762 -0.513582
v -1.585076 1.607499 -0.412772
v -1.585076 1.415746 -0.148847
v -1.585076 1.415746 0.177383
v -1.585076 1.607499 0.441308
v -1.585076 1.917762 0.542118
v -1.585076 2.228024 0.441308
v -1.585076 2.419777 0.177383
v -1.585076 2.419777 -0.148847
v -1.585076 2.228024 -0.412772
v -1.721152 2.112256 -0.257940
v -1.721152 1.721966 -0.257940
v -1.721152 1.917111 -0.321346
v -1.721152 2.232862 -0.091940
v -1.721152 2.232862 0.113248
v -1.721152 1.601360 -0.091939
v -1.721152 1.601360 0.113248
v -1.721152 1.721966 0.279248
v -1.721152 1.917111 0.342655
v -1.721152 2.112256 0.279248
v -1.775466 2.001159 -0.105028
v -1.775466 1.833063 -0.105028
v -1.775466 1.917111 -0.132337
v -1.775466 2.053104 -0.033532
v -1.775466 2.053104 0.054841
v -1.775466 1.781119 -0.033532
v -1.775466 1.781119 0.054841
v -1.775466 1.833063 0.126336
v -1.775466 1.917111 0.153645
v -1.775466 2.001159 0.126336
v -1.775466 1.917111 -0.060228
v -1.775466 1.875448 -0.046690
v -1.775466 1.849699 -0.011250
v -1.775466 1.849699 0.032558
v -1.775466 1.875448 0.067999
v -1.775466 1.917111 0.081536
v -1.775466 1.958775 0.067999
v -1.775466 1.984524 0.032558
v -1.775466 1.984524 -0.011250
v -1.775466 1.958775 -0.046691
v -1.909680 1.917111 -0.060228
v -1.909680 1.875448 -0.046690
v -1.909680 1.849699 -0.011250
v -1.909680 1.849699 0.032558
v -1.909680 1.875448 0.067999
v -1.909680 1.917111 0.081536
v -1.909680 1.958775 0.067999
v -1.909680 1.984524 0.032558
v -1.909680 1.984524 -0.011250
v -1.909680 1.958775 -0.046691
v -1.565975 1.914255 -0.258356
v -1.565975 1.765461 -0.210009
v -1.565975 1.673501 -0.083437
v -1.565975 1.673501 0.073014
v -1.565975 1.765461 0.199587
v -1.565975 1.914255 0.247933
v -1.565975 2.063050 0.199587
v -1.565975 2.155010 0.073014
v -1.565975 2.155010 -0.083437
v -1.565975 2.063050 -0.210009
vt 0.024842 0.910724
vt 0.084354 0.910724
vt 0.084354 0.970236
vt 0.024842 0.970236
vt 0.024842 0.910724
vt 0.084354 0.910724
vt 0.084354 0.970236
vt 0.024842 0.970236
vt 0.024842 0.910724
vt 0.084354 0.910724
vt 0.084354 0.970236
vt 0.024842 0.970236
vt 0.024842 0.910724
vt 0.084354 0.910724
vt 0.084354 0.970236
vt 0.024842 0.970236
vt 0.024842 0.910724
vt 0.084354 0.910724
vt 0.084354 0.970236
vt 0.024842 0.970236
vt 0.024842 0.910724
vt 0.084354 0.910724
vt 0.084354 0.970236
vt 0.024842 0.970236
vt 0.024842 0.910724
vt 0.084354 0.910724
vt 0.084354 0.970236
vt 0.024842 0.970236
vt 0.024842 0.910724
vt 0.084354 0.910724
vt 0.084354 0.970236
vt 0.024842 0.970236
vt 0.024842 0.910724
vt 0.084354 0.910724
vt 0.084354 0.970236
vt 0.024842 0.970236
vt 0.024842 0.910724
vt 0.084354 0.910724
vt 0.084354 0.970236
vt 0.024842 0.970236
vt 0.024842 0.910724
vt 0.084354 0.910724
vt 0.084354 0.970236
vt 0.024842 0.970236
vt 0.024842 0.910724
vt 0.084354 0.910724
vt 0.084354 0.970236
vt 0.024842 0.970236
vt 0.024842 0.910724
vt 0.084354 0.910724
vt 0.084354 0.970236
vt 0.024842 0.970236
vt 0.024842 0.910724
vt 0.084354 0.910724
vt 0.084354 0.970236
vt 0.024842 0.970236
vt 0.024842 0.910724
vt 0.084354 0.910724
vt 0.084354 0.970236
vt 0.024842 0.970236
vt 0.024842 0.910724
vt 0.084354 0.910724
vt 0.084354 0.970236
vt 0.024842 0.970236
vt 0.084354 0.910724
vt 0.084354 0.970236
vt 0.024842 0.970236
vt 0.024842 0.910724
vt 0.084354 0.970236
vt 0.024842 0.970236
vt 0.024842 0.910724
vt 0.084354 0.970236
vt 0.024842 0.970236
vt 0.084354 0.910724
vt 0.084354 0.970236
vt 0.024842 0.970236
vt 0.024842 0.910724
vt 0.084354 0.970236
vt 0.024842 0.970236
vt 0.024842 0.910724
vt 0.084354 0.970236
vt 0.024842 0.970236
vt 0.084354 0.910724
vt 0.084354 0.970236
vt 0.024842 0.970236
vt 0.024842 0.910724
vt 0.084354 0.970236
vt 0.024842 0.970236
vt 0.024842 0.910724
vt 0.084354 0.970236
vt 0.024842 0.970236
vt 0.084354 0.910724
vt 0.084354 0.970236
vt 0.024842 0.970236
vt 0.024842 0.910724
vt 0.084354 0.970236
vt 0.024842 0.970236
vt 0.084354 0.910724
vt 0.084354 0.970236
vt 0.024842 0.970236
vt 0.024842 0.910724
vt 0.084354 0.970236
vt 0.024842 0.970236
vt 0.084354 0.910724
vt 0.084354 0.970236
vt 0.024842 0.970236
vt 0.084354 0.910724
vt 0.084354 0.970236
vt 0.024842 0.970236
vt 0.024842 0.910724
vt 0.084354 0.970236
vt 0.024842 0.970236
vt 0.084354 0.910724
vt 0.084354 0.970236
vt 0.024842 0.970236
vt 0.084354 0.910724
vt 0.084354 0.970236
vt 0.024842 0.970236
vt 0.024842 0.910724
vt 0.084354 0.970236
vt 0.024842 0.970236
vt 0.084354 0.910724
vt 0.084354 0.970236
vt 0.024842 0.970236
vt 0.024842 0.910724
vt 0.084354 0.910724
vt 0.084354 0.970236
vt 0.024842 0.970236
vt 0.024842 0.910724
vt 0.084354 0.910724
vt 0.084354 0.970236
vt 0.024842 0.970236
vt 0.024842 0.910724
vt 0.084354 0.910724
vt 0.084354 0.970236
vt 0.024842 0.970236
vt 0.024842 0.910724
vt 0.084354 0.910724
vt 0.084354 0.970236
vt 0.024842 0.970236
vt 0.024842 0.910724
vt 0.084354 0.910724
vt 0.084354 0.970236
vt 0.024842 0.970236
vt 0.024842 0.910724
vt 0.084354 0.910724
vt 0.084354 0.970236
vt 0.024842 0.970236
vt 0.024842 0.910724
vt 0.084354 0.910724
vt 0.084354 0.970236
vt 0.024842 0.970236
vt 0.024842 0.910724
vt 0.084354 0.910724
vt 0.084354 0.970236
vt 0.024842 0.970236
vt 0.024842 0.910724
vt 0.084354 0.910724
vt 0.084354 0.970236
vt 0.024842 0.970236
vt 0.024842 0.910724
vt 0.084354 0.910724
vt 0.084354 0.970236
vt 0.024842 0.970236
vt 0.024842 0.910724
vt 0.084354 0.910724
vt 0.084354 0.970236
vt 0.024842 0.970236
vt 0.024842 0.910724
vt 0.084354 0.910724
vt 0.084354 0.970236
vt 0.024842 0.970236
vt 0.024842 0.910724
vt 0.084354 0.910724
vt 0.084354 0.970236
vt 0.024842 0.970236
vt 0.024842 0.910724
vt 0.084354 0.910724
vt 0.084354 0.970236
vt 0.024842 0.970236
vt 0.024842 0.910724
vt 0.084354 0.910724
vt 0.084354 0.970236
vt 0.024842 0.970236
vt 0.024842 0.910724
vt 0.084354 0.910724
vt 0.084354 0.970236
vt 0.024842 0.970236
vt 0.024842 0.910724
vt 0.084354 0.910724
vt 0.084354 0.970236
vt 0.024842 0.970236
vt 0.024842 0.910724
vt 0.084354 0.910724
vt 0.084354 0.970236
vt 0.024842 0.970236
vt 0.024842 0.910724
vt 0.084354 0.910724
vt 0.084354 0.970236
vt 0.024842 0.970236
vt 0.024842 0.910724
vt 0.084354 0.910724
vt 0.084354 0.970236
vt 0.024842 0.970236
vt 0.024842 0.910724
vt 0.084354 0.910724
vt 0.084354 0.970236
vt 0.024842 0.970236
vt 0.024842 0.910724
vt 0.084354 0.910724
vt 0.084354 0.970236
vt 0.024842 0.970236
vt 0.024842 0.910724
vt 0.084354 0.910724
vt 0.084354 0.970236
vt 0.024842 0.970236
vt 0.024842 0.910724
vt 0.084354 0.910724
vt 0.084354 0.970236
vt 0.024842 0.970236
vt 0.024842 0.910724
vt 0.084354 0.910724
vt 0.084354 0.970236
vt 0.024842 0.970236
vt 0.024842 0.910724
vt 0.084354 0.910724
vt 0.084354 0.970236
vt 0.024842 0.970236
vt 0.024842 0.910724
vt 0.084354 0.910724
vt 0.084354 0.970236
vt 0.024842 0.970236
vt 0.024842 0.910724
vt 0.084354 0.910724
vt 0.084354 0.970236
vt 0.024842 0.970236
vt 0.024842 0.910724
vt 0.084354 0.910724
vt 0.084354 0.970236
vt 0.024842 0.970236
vt 0.024842 0.910724
vt 0.084354 0.910724
vt 0.084354 0.970236
vt 0.024842 0.970236
vt 0.024842 0.910724
vt 0.084354 0.910724
vt 0.084354 0.970236
vt 0.024842 0.970236
vt 0.024842 0.910724
vt 0.084354 0.910724
vt 0.084354 0.970236
vt 0.024842 0.970236
vt 0.024842 0.910724
vt 0.084354 0.910724
vt 0.084354 0.970236
vt 0.024842 0.970236
vt 0.024842 0.910724
vt 0.084354 0.910724
vt 0.084354 0.970236
vt 0.024842 0.970236
vt 0.024842 0.910724
vt 0.084354 0.910724
vt 0.084354 0.970236
vt 0.024842 0.970236
vt 0.024842 0.910724
vt 0.084354 0.910724
vt 0.084354 0.970236
vt 0.024842 0.970236
vt 0.024842 0.910724
vt 0.084354 0.910724
vt 0.084354 0.970236
vt 0.024842 0.970236
vt 0.024842 0.910724
vt 0.084354 0.910724
vt 0.084354 0.970236
vt 0.024842 0.970236
vt 0.024842 0.910724
vt 0.084354 0.910724
vt 0.084354 0.970236
vt 0.024842 0.970236
vt 0.024842 0.910724
vt 0.084354 0.910724
vt 0.084354 0.970236
vt 0.024842 0.970236
vt 0.024842 0.910724
vt 0.084354 0.910724
vt 0.084354 0.970236
vt 0.024842 0.970236
vt 0.024842 0.910724
vt 0.084354 0.910724
vt 0.084354 0.970236
vt 0.024842 0.970236
vt 0.024842 0.910724
vt 0.084354 0.910724
vt 0.084354 0.970236
vt 0.024842 0.970236
vt 0.024842 0.910724
vt 0.084354 0.910724
vt 0.084354 0.970236
vt 0.024842 0.970236
vt 0.024842 0.910724
vt 0.084354 0.910724
vt 0.084354 0.970236
vt 0.024842 0.970236
vt 0.054598 0.970236
vt 0.072088 0.964553
vt 0.082898 0.949675
vt 0.082898 0.931285
vt 0.072088 0.916407
vt 0.054598 0.910724
vt 0.037108 0.916407
vt 0.026299 0.931285
vt 0.026299 0.949675
vt 0.037108 0.964553
vt 0.024842 0.910724
vt 0.084354 0.910724
vt 0.084354 0.970236
vt 0.024842 0.970236
vt 0.024842 0.910724
vt 0.084354 0.910724
vt 0.084354 0.970236
vt 0.024842 0.970236
vt 0.024842 0.910724
vt 0.084354 0.910724
vt 0.084354 0.970236
vt 0.024842 0.970236
vt 0.024842 0.910724
vt 0.084354 0.910724
vt 0.084354 0.970236
vt 0.024842 0.970236
vt 0.024842 0.910724
vt 0.084354 0.910724
vt 0.084354 0.970236
vt 0.024842 0.970236
vt 0.024842 0.910724
vt 0.084354 0.910724
vt 0.084354 0.970236
vt 0.024842 0.970236
vt 0.024842 0.910724
vt 0.084354 0.910724
vt 0.084354 0.970236
vt 0.024842 0.970236
vt 0.024842 0.910724
vt 0.084354 0.910724
vt 0.084354 0.970236
vt 0.024842 0.970236
vt 0.024842 0.910724
vt 0.084354 0.910724
vt 0.084354 0.970236
vt 0.024842 0.970236
vt 0.024842 0.910724
vt 0.084354 0.910724
vt 0.084354 0.970236
vt 0.024842 0.970236
vt 0.054598 0.970236
vt 0.072088 0.964553
vt 0.082898 0.949675
vt 0.082898 0.931285
vt 0.072088 0.916407
vt 0.054598 0.910724
vt 0.037108 0.916407
vt 0.026299 0.931285
vt 0.026299 0.949675
vt 0.037108 0.964553
vt 0.024842 0.910724
vt 0.084354 0.910724
vt 0.084354 0.970236
vt 0.024842 0.970236
vt 0.024842 0.910724
vt 0.084354 0.910724
vt 0.084354 0.970236
vt 0.024842 0.970236
vt 0.024842 0.910724
vt 0.084354 0.910724
vt 0.084354 0.970236
vt 0.024842 0.970236
vt 0.024842 0.910724
vt 0.084354 0.910724
vt 0.084354 0.970236
vt 0.024842 0.970236
vt 0.024842 0.910724
vt 0.084354 0.910724
vt 0.084354 0.970236
vt 0.024842 0.970236
vt 0.024842 0.910724
vt 0.084354 0.910724
vt 0.084354 0.970236
vt 0.024842 0.970236
vt 0.024842 0.910724
vt 0.084354 0.910724
vt 0.084354 0.970236
vt 0.024842 0.970236
vt 0.024842 0.910724
vt 0.084354 0.910724
vt 0.084354 0.970236
vt 0.024842 0.970236
vt 0.024842 0.910724
vt 0.084354 0.910724
vt 0.084354 0.970236
vt 0.024842 0.970236
vn 1.0000 0.0000 0.0000
vn -0.8099 -0.4746 0.3448
vn -0.0362 -0.3088 0.9504
vn -0.1471 -0.8002 0.5814
vn -0.8065 -0.5912 0.0000
vn -0.2902 -0.9570 0.0000
vn -0.4334 0.2785 -0.8571
vn 0.0000 -1.0000 0.0000
vn 0.0000 0.3090 0.9511
vn 0.0000 -0.8090 0.5878
vn 0.0000 0.8090 0.5878
vn 0.0000 -0.3090 0.9511
vn 0.0000 1.0000 0.0000
vn 0.0000 0.8090 -0.5878
vn 0.0000 0.3090 -0.9511
vn 0.0000 -0.3090 -0.9511
vn 0.0000 -0.8090 -0.5878
vn -1.0000 0.0000 0.0000
vn -0.0086 0.3090 0.9510
vn -0.8025 0.1844 -0.5674
vn -0.0762 0.8067 0.5861
vn -0.2091 0.9779 0.0000
vn -0.4532 -0.2755 -0.8478
vn -0.8034 -0.4817 -0.3500
vn -0.3456 0.7592 -0.5516
vn -0.4032 -0.7403 -0.5379
vn -0.8050 0.4799 -0.3487
vn -0.8123 -0.1802 0.5547
vn -0.8129 0.1800 0.5540
vn -0.8114 0.4728 0.3435
vn -0.8085 0.5886 0.0000
vn -0.8019 -0.1846 -0.5682
vn -0.9573 -0.0894 0.2751
vn -0.9573 -0.2340 -0.1700
vn -0.9573 0.2340 -0.1700
vn -0.9573 0.0894 0.2751
vn -0.9573 -0.2892 0.0000
vn -0.9573 0.0894 -0.2751
vn -0.9573 0.2340 0.1700
vn -0.9573 -0.2340 0.1700
vn -0.9573 -0.0894 -0.2751
vn -0.9573 0.2892 0.0000
vn 0.9780 -0.0644 -0.1982
vn 0.9780 0.2084 0.0000
vn 0.9780 -0.0644 0.1982
vn 0.9780 -0.1686 -0.1225
vn 0.9780 0.1686 -0.1225
vn 0.9780 0.0644 0.1982
vn 0.9780 -0.2084 0.0000
vn 0.9780 0.0644 -0.1982
vn 0.9780 0.1686 0.1225
vn 0.9780 -0.1686 0.1225
usemtl Hydrant_color_map
s off
f 7/1/1 17/2/1 18/3/1 8/4/1
f 4/5/1 14/6/1 15/7/1 5/8/1
f 1/9/1 11/10/1 12/11/1 2/12/1
f 8/13/1 18/14/1 19/15/1 9/16/1
f 5/17/1 15/18/1 16/19/1 6/20/1
f 2/21/1 12/22/1 13/23/1 3/24/1
f 9/25/1 19/26/1 20/27/1 10/28/1
f 6/29/1 16/30/1 17/31/1 7/32/1
f 3/33/1 13/34/1 14/35/1 4/36/1
f 10/37/1 20/38/1 11/39/1 1/40/1
f 54/41/2 55/42/2 68/43/2 67/44/2
f 25/45/3 26/46/3 46/47/3 45/48/3
f 24/49/4 25/50/4 45/51/4 44/52/4
f 53/53/5 54/54/5 67/55/5 66/56/5
f 23/57/6 24/58/6 44/59/6 43/60/6
f 30/61/7 21/62/7 41/63/7 50/64/7
f 3/33/8 4/65/8 24/66/8 23/67/8
f 19/68/8 18/14/8 38/69/8 39/70/8
f 12/71/9 11/10/9 31/72/9 32/73/9
f 4/5/10 5/74/10 25/75/10 24/76/10
f 20/77/10 19/26/10 39/78/10 40/79/10
f 13/80/11 12/22/11 32/81/11 33/82/11
f 5/17/12 6/83/12 26/84/12 25/85/12
f 11/86/12 20/38/12 40/87/12 31/88/12
f 14/89/13 13/34/13 33/90/13 34/91/13
f 6/29/9 7/92/9 27/93/9 26/94/9
f 15/95/14 14/6/14 34/96/14 35/97/14
f 7/1/11 8/98/11 28/99/11 27/100/11
f 16/101/15 15/18/15 35/102/15 36/103/15
f 8/13/13 9/104/13 29/105/13 28/106/13
f 1/9/16 2/107/16 22/108/16 21/109/16
f 17/110/16 16/30/16 36/111/16 37/112/16
f 9/25/14 10/113/14 30/114/14 29/115/14
f 2/21/17 3/116/17 23/117/17 22/118/17
f 18/119/17 17/2/17 37/120/17 38/121/17
f 10/37/15 1/122/15 21/123/15 30/124/15
f 47/125/18 48/126/18 58/127/18 57/128/18
f 44/129/18 45/130/18 55/131/18 54/132/18
f 41/133/18 42/134/18 52/135/18 51/136/18
f 48/137/18 49/138/18 59/139/18 58/140/18
f 45/141/18 46/142/18 56/143/18 55/144/18
f 42/145/18 43/146/18 53/147/18 52/148/18
f 49/149/18 50/150/18 60/151/18 59/152/18
f 46/153/18 47/154/18 57/155/18 56/156/18
f 43/157/18 44/158/18 54/159/18 53/160/18
f 50/161/18 41/162/18 51/163/18 60/164/18
f 26/165/19 27/166/19 47/167/19 46/168/19
f 60/169/20 51/170/20 63/171/20 61/172/20
f 27/173/21 28/174/21 48/175/21 47/176/21
f 28/177/22 29/178/22 49/179/22 48/180/22
f 21/181/23 22/182/23 42/183/23 41/184/23
f 52/185/24 53/186/24 66/187/24 62/188/24
f 29/189/25 30/190/25 50/191/25 49/192/25
f 22/193/26 23/194/26 43/195/26 42/196/26
f 59/197/27 60/198/27 61/199/27 64/200/27
f 55/201/28 56/202/28 69/203/28 68/204/28
f 56/205/29 57/206/29 70/207/29 69/208/29
f 57/209/30 58/210/30 65/211/30 70/212/30
f 58/213/31 59/214/31 64/215/31 65/216/31
f 51/217/32 52/218/32 62/219/32 63/220/32
f 68/221/33 69/222/33 79/223/33 78/224/33
f 62/225/34 66/226/34 76/227/34 72/228/34
f 64/229/35 61/230/35 71/231/35 74/232/35
f 69/233/36 70/234/36 80/235/36 79/236/36
f 66/237/37 67/238/37 77/239/37 76/240/37
f 61/241/38 63/242/38 73/243/38 71/244/38
f 70/245/39 65/246/39 75/247/39 80/248/39
f 67/249/40 68/250/40 78/251/40 77/252/40
f 63/253/41 62/254/41 72/255/41 73/256/41
f 65/257/42 64/258/42 74/259/42 75/260/42
f 75/261/18 74/262/18 89/263/18 88/264/18
f 85/265/12 86/266/12 96/267/12 95/268/12
f 78/269/18 79/270/18 86/271/18 85/272/18
f 72/273/18 76/274/18 83/275/18 82/276/18
f 74/277/18 71/278/18 90/279/18 89/280/18
f 79/281/18 80/282/18 87/283/18 86/284/18
f 76/285/18 77/286/18 84/287/18 83/288/18
f 71/289/18 73/290/18 81/291/18 90/292/18
f 80/293/18 75/294/18 88/295/18 87/296/18
f 77/297/18 78/298/18 85/299/18 84/300/18
f 73/301/18 72/302/18 82/303/18 81/304/18
f 91/305/18 92/306/18 93/307/18 94/308/18 95/309/18 96/310/18 97/311/18 98/312/18 99/313/18 100/314/18
f 82/315/17 83/316/17 93/317/17 92/318/17
f 89/319/14 90/320/14 100/321/14 99/322/14
f 86/323/9 87/324/9 97/325/9 96/326/9
f 83/327/8 84/328/8 94/329/8 93/330/8
f 90/331/15 81/332/15 91/333/15 100/334/15
f 87/335/11 88/336/11 98/337/11 97/338/11
f 84/339/10 85/340/10 95/341/10 94/342/10
f 81/343/16 82/344/16 92/345/16 91/346/16
f 88/347/13 89/348/13 99/349/13 98/350/13
f 37/351/43 36/352/43 106/353/43 107/354/43
f 101/355/1 110/356/1 109/357/1 108/358/1 107/359/1 106/360/1 105/361/1 104/362/1 103/363/1 102/364/1
f 34/365/44 33/366/44 103/367/44 104/368/44
f 31/369/45 40/370/45 110/371/45 101/372/45
f 38/373/46 37/374/46 107/375/46 108/376/46
f 35/377/47 34/378/47 104/379/47 105/380/47
f 32/381/48 31/382/48 101/383/48 102/384/48
f 39/385/49 38/386/49 108/387/49 109/388/49
f 36/389/50 35/390/50 105/391/50 106/392/50
f 33/393/51 32/394/51 102/395/51 103/396/51
f 40/397/52 39/398/52 109/399/52 110/400/52
