# Blender v2.80 (sub 35) OBJ File: 'LD 43 3d Models.blend'
# www.blender.org
mtllib Hydrant Pipe.mtl
o Underground_Pipe_Cylinder.001
v 0.000000 -1.410901 -1.000000
v 0.587785 -1.410901 -0.809017
v 0.951057 -1.410901 -0.309017
v 0.951056 -1.410901 0.309017
v 0.587785 -1.410901 0.809017
v -0.000000 -1.410901 1.000000
v -0.587785 -1.410901 0.809017
v -0.951056 -1.410901 0.309017
v -0.951056 -1.410901 -0.309017
v -0.587785 -1.410901 -0.809017
v 0.000000 0.001066 -1.000000
v 0.587785 0.001066 -0.809017
v 0.951056 0.001066 -0.309017
v 0.951056 0.001066 0.309017
v 0.587785 0.001066 0.809017
v -0.000000 0.001066 1.000000
v -0.587785 0.001066 0.809017
v -0.951056 0.001066 0.309017
v -0.951056 0.001066 -0.309017
v -0.587785 0.001066 -0.809017
v 0.000000 -1.410901 -0.848687
v 0.498845 -1.410901 -0.686602
v 0.807149 -1.410901 -0.262259
v 0.807149 -1.410901 0.262259
v 0.498845 -1.410901 0.686602
v -0.000000 -1.410901 0.848687
v -0.498845 -1.410901 0.686602
v -0.807149 -1.410901 0.262259
v -0.807149 -1.410901 -0.262259
v -0.498845 -1.410901 -0.686602
v 0.000000 0.662870 -0.848687
v 0.498845 0.662870 -0.686602
v 0.807149 0.662870 -0.262259
v 0.807149 0.662870 0.262259
v 0.498845 0.662870 0.686602
v -0.000000 0.662870 0.848687
v -0.498845 0.662870 0.686602
v -0.807149 0.662870 0.262259
v -0.807149 0.662870 -0.262259
v -0.498845 0.662870 -0.686602
vt 0.597529 0.841147
vt 0.673157 0.841147
vt 0.673157 0.916774
vt 0.597529 0.916774
vt 0.597529 0.841147
vt 0.673157 0.841147
vt 0.673157 0.916774
vt 0.597529 0.916774
vt 0.673157 0.841147
vt 0.673157 0.916774
vt 0.597529 0.916774
vt 0.597529 0.841147
vt 0.673157 0.841147
vt 0.673157 0.916774
vt 0.597529 0.916774
vt 0.597529 0.841147
vt 0.673157 0.841147
vt 0.673157 0.916774
vt 0.597529 0.916774
vt 0.597529 0.841147
vt 0.673157 0.841147
vt 0.673157 0.916774
vt 0.597529 0.916774
vt 0.597529 0.841147
vt 0.673157 0.841147
vt 0.673157 0.916774
vt 0.597529 0.916774
vt 0.597529 0.841147
vt 0.673157 0.841147
vt 0.673157 0.916774
vt 0.597529 0.916774
vt 0.597529 0.841147
vt 0.673157 0.841147
vt 0.673157 0.916774
vt 0.597529 0.916774
vt 0.597529 0.841147
vt 0.673157 0.841147
vt 0.673157 0.916774
vt 0.597529 0.916774
vt 0.597529 0.841147
vt 0.673157 0.841147
vt 0.673157 0.916774
vt 0.597529 0.916774
vt 0.597529 0.841147
vt 0.673157 0.841147
vt 0.673157 0.916774
vt 0.597529 0.916774
vt 0.673157 0.841147
vt 0.673157 0.916774
vt 0.597529 0.916774
vt 0.673157 0.841147
vt 0.673157 0.916774
vt 0.597529 0.916774
vt 0.673157 0.841147
vt 0.673157 0.916774
vt 0.597529 0.916774
vt 0.673157 0.841147
vt 0.673157 0.916774
vt 0.597529 0.916774
vt 0.673157 0.841147
vt 0.673157 0.916774
vt 0.597529 0.916774
vt 0.673157 0.841147
vt 0.673157 0.916774
vt 0.597529 0.916774
vt 0.673157 0.841147
vt 0.673157 0.916774
vt 0.597529 0.916774
vt 0.673157 0.841147
vt 0.673157 0.916774
vt 0.597529 0.916774
vt 0.673157 0.841147
vt 0.673157 0.916774
vt 0.597529 0.916774
vt 0.597529 0.841147
vt 0.673157 0.841147
vt 0.673157 0.916774
vt 0.597529 0.916774
vt 0.597529 0.841147
vt 0.673157 0.841147
vt 0.673157 0.916774
vt 0.597529 0.916774
vt 0.597529 0.841147
vt 0.673157 0.841147
vt 0.673157 0.916774
vt 0.597529 0.916774
vt 0.597529 0.841147
vt 0.673157 0.841147
vt 0.673157 0.916774
vt 0.597529 0.916774
vt 0.597529 0.841147
vt 0.673157 0.841147
vt 0.673157 0.916774
vt 0.597529 0.916774
vt 0.597529 0.841147
vt 0.673157 0.841147
vt 0.673157 0.916774
vt 0.597529 0.916774
vt 0.597529 0.841147
vt 0.673157 0.841147
vt 0.673157 0.916774
vt 0.597529 0.916774
vt 0.597529 0.841147
vt 0.673157 0.841147
vt 0.673157 0.916774
vt 0.597529 0.916774
vt 0.597529 0.841147
vt 0.673157 0.841147
vt 0.673157 0.916774
vt 0.597529 0.916774
vn 0.0000 -1.0000 -0.0000
vn -0.3090 -0.0000 -0.9511
vn -0.8090 0.0000 -0.5878
vn -1.0000 0.0000 0.0000
vn -0.8090 0.0000 0.5878
vn -0.3090 0.0000 0.9511
vn 0.3090 0.0000 0.9511
vn 0.8090 0.0000 0.5878
vn 1.0000 0.0000 0.0000
vn 0.8090 0.0000 -0.5878
vn 0.3090 0.0000 -0.9511
usemtl Hydrant_color_map
s off
f 9/1/1 10/2/1 30/3/1 29/4/1
f 10/5/2 20/6/2 11/7/2 1/8/2
f 9/1/3 19/9/3 20/10/3 10/11/3
f 8/12/4 18/13/4 19/14/4 9/15/4
f 7/16/5 17/17/5 18/18/5 8/19/5
f 6/20/6 16/21/6 17/22/6 7/23/6
f 5/24/7 15/25/7 16/26/7 6/27/7
f 4/28/8 14/29/8 15/30/8 5/31/8
f 3/32/9 13/33/9 14/34/9 4/35/9
f 2/36/10 12/37/10 13/38/10 3/39/10
f 1/40/11 11/41/11 12/42/11 2/43/11
f 26/44/11 27/45/11 37/46/11 36/47/11
f 8/12/1 9/48/1 29/49/1 28/50/1
f 7/16/1 8/51/1 28/52/1 27/53/1
f 6/20/1 7/54/1 27/55/1 26/56/1
f 5/24/1 6/57/1 26/58/1 25/59/1
f 4/28/1 5/60/1 25/61/1 24/62/1
f 1/40/1 2/63/1 22/64/1 21/65/1
f 3/32/1 4/66/1 24/67/1 23/68/1
f 2/36/1 3/69/1 23/70/1 22/71/1
f 10/5/1 1/72/1 21/73/1 30/74/1
f 23/75/4 24/76/4 34/77/4 33/78/4
f 30/79/7 21/80/7 31/81/7 40/82/7
f 27/83/10 28/84/10 38/85/10 37/86/10
f 24/87/3 25/88/3 35/89/3 34/90/3
f 21/91/6 22/92/6 32/93/6 31/94/6
f 28/95/9 29/96/9 39/97/9 38/98/9
f 25/99/2 26/100/2 36/101/2 35/102/2
f 22/103/5 23/104/5 33/105/5 32/106/5
f 29/107/8 30/108/8 40/109/8 39/110/8
