# Blender v2.80 (sub 35) OBJ File: 'LD 43 3d Models.blend'
# www.blender.org
mtllib Hydrant Rims.mtl
o Yellow_Accents_Cylinder.006
v 0.000000 2.656205 -1.000000
v 0.587785 2.656205 -0.809017
v 0.951057 2.656205 -0.309017
v 0.951056 2.656205 0.309017
v 0.587785 2.656205 0.809017
v -0.000000 2.656205 1.000000
v -0.587785 2.656205 0.809017
v -0.951056 2.656205 0.309017
v -0.951056 2.656205 -0.309017
v -0.587785 2.656205 -0.809017
v 0.587785 2.748865 -0.809017
v 0.000000 2.748865 -1.000000
v 0.951057 2.748865 -0.309017
v 0.951056 2.748865 0.309017
v 0.587785 2.748865 0.809017
v -0.000000 2.748865 1.000000
v -0.587785 2.748865 0.809017
v -0.951056 2.748865 0.309017
v -0.951056 2.748865 -0.309017
v -0.587785 2.748865 -0.809017
v 0.587785 3.103753 -0.809017
v 0.000000 3.103753 -1.000000
v 0.951057 3.103753 -0.309017
v 0.951056 3.103753 0.309017
v 0.587785 3.103753 0.809017
v -0.000000 3.103753 1.000000
v -0.587785 3.103753 0.809017
v -0.951056 3.103753 0.309017
v -0.951056 3.103753 -0.309017
v -0.587785 3.103753 -0.809017
v 0.587785 3.189639 -0.809017
v 0.000000 3.189639 -1.000000
v 0.951057 3.189639 -0.309017
v 0.951056 3.189639 0.309017
v 0.587785 3.189639 0.809017
v -0.000000 3.189639 1.000000
v -0.587785 3.189639 0.809017
v -0.951056 3.189639 0.309017
v -0.951056 3.189639 -0.309017
v -0.587785 3.189639 -0.809017
v 0.186956 3.892558 -0.257323
v 0.000000 3.892558 -0.318069
v 0.302502 3.892558 -0.098289
v 0.302502 3.892558 0.098289
v 0.186956 3.892558 0.257323
v 0.000000 3.892558 0.318069
v -0.186956 3.892558 0.257323
v -0.302502 3.892558 0.098289
v -0.302502 3.892558 -0.098289
v -0.186956 3.892558 -0.257323
v 0.186956 3.997494 -0.257323
v 0.000000 3.997494 -0.318069
v 0.302502 3.997494 -0.098289
v 0.302502 3.997494 0.098289
v 0.186956 3.997494 0.257323
v 0.000000 3.997494 0.318069
v -0.186956 3.997494 0.257323
v -0.302502 3.997494 0.098289
v -0.302502 3.997494 -0.098289
v -0.186956 3.997494 -0.257323
v 0.260850 3.892558 -0.359029
v 0.000000 3.892558 -0.443784
v 0.422064 3.892558 -0.137137
v 0.422064 3.892558 0.137137
v 0.260850 3.892558 0.359029
v -0.000000 3.892558 0.443784
v -0.260850 3.892558 0.359029
v -0.422064 3.892558 0.137137
v -0.422064 3.892558 -0.137137
v -0.260850 3.892558 -0.359029
v 0.260850 3.997494 -0.359029
v 0.000000 3.997494 -0.443784
v 0.422064 3.997494 -0.137137
v 0.422064 3.997494 0.137137
v 0.260850 3.997494 0.359029
v -0.000000 3.997494 0.443784
v -0.260850 3.997494 0.359029
v -0.422064 3.997494 0.137137
v -0.422064 3.997494 -0.137137
v -0.260850 3.997494 -0.359029
v 0.690916 2.656205 -0.950965
v -0.000000 2.656205 -1.175457
v 1.117926 2.656205 -0.363236
v 1.117926 2.656205 0.363236
v 0.690916 2.656205 0.950965
v -0.000000 2.656205 1.175457
v -0.690916 2.656205 0.950965
v -1.117926 2.656205 0.363236
v -1.117926 2.656205 -0.363236
v -0.690916 2.656205 -0.950965
v 0.690916 2.748865 -0.950965
v -0.000000 2.748865 -1.175457
v 1.117926 2.748865 -0.363236
v 1.117926 2.748865 0.363236
v 0.690916 2.748865 0.950965
v -0.000000 2.748865 1.175457
v -0.690916 2.748865 0.950965
v -1.117926 2.748865 0.363236
v -1.117926 2.748865 -0.363236
v -0.690916 2.748865 -0.950965
v 0.690916 3.103753 -0.950965
v -0.000000 3.103753 -1.175457
v 1.117926 3.103753 -0.363236
v 1.117926 3.103753 0.363236
v 0.690916 3.103753 0.950965
v -0.000000 3.103753 1.175457
v -0.690916 3.103753 0.950965
v -1.117926 3.103753 0.363236
v -1.117926 3.103753 -0.363236
v -0.690916 3.103753 -0.950965
v 0.690916 3.189639 -0.950965
v -0.000000 3.189639 -1.175457
v 1.117926 3.189639 -0.363236
v 1.117926 3.189639 0.363236
v 0.690916 3.189639 0.950965
v -0.000000 3.189639 1.175457
v -0.690916 3.189639 0.950965
v -1.117926 3.189639 0.363236
v -1.117926 3.189639 -0.363236
v -0.690916 3.189639 -0.950965
vt 0.142350 0.919957
vt 0.070199 0.919957
vt 0.070199 0.847807
vt 0.142350 0.847807
vt 0.142350 0.919957
vt 0.070199 0.919957
vt 0.070199 0.847807
vt 0.142350 0.847807
vt 0.142350 0.919957
vt 0.070199 0.919957
vt 0.070199 0.847807
vt 0.142350 0.847807
vt 0.142350 0.919957
vt 0.070199 0.919957
vt 0.070199 0.847807
vt 0.142350 0.847807
vt 0.142350 0.919957
vt 0.070199 0.919957
vt 0.070199 0.847807
vt 0.142350 0.847807
vt 0.142350 0.919957
vt 0.070199 0.919957
vt 0.070199 0.847807
vt 0.142350 0.847807
vt 0.142350 0.919957
vt 0.070199 0.919957
vt 0.070199 0.847807
vt 0.142350 0.847807
vt 0.142350 0.919957
vt 0.070199 0.919957
vt 0.070199 0.847807
vt 0.142350 0.847807
vt 0.142350 0.919957
vt 0.070199 0.919957
vt 0.070199 0.847807
vt 0.142350 0.847807
vt 0.142350 0.919957
vt 0.070199 0.919957
vt 0.070199 0.847807
vt 0.142350 0.847807
vt 0.142350 0.919957
vt 0.070199 0.919957
vt 0.070199 0.847807
vt 0.142350 0.847807
vt 0.142350 0.919957
vt 0.070199 0.919957
vt 0.070199 0.847807
vt 0.142350 0.847807
vt 0.142350 0.919957
vt 0.070199 0.919957
vt 0.070199 0.847807
vt 0.142350 0.847807
vt 0.142350 0.919957
vt 0.070199 0.919957
vt 0.070199 0.847807
vt 0.142350 0.847807
vt 0.142350 0.919957
vt 0.070199 0.919957
vt 0.070199 0.847807
vt 0.142350 0.847807
vt 0.142350 0.919957
vt 0.070199 0.919957
vt 0.070199 0.847807
vt 0.142350 0.847807
vt 0.142350 0.919957
vt 0.070199 0.919957
vt 0.070199 0.847807
vt 0.142350 0.847807
vt 0.142350 0.919957
vt 0.070199 0.919957
vt 0.070199 0.847807
vt 0.142350 0.847807
vt 0.142350 0.919957
vt 0.070199 0.919957
vt 0.070199 0.847807
vt 0.142350 0.847807
vt 0.142350 0.919957
vt 0.070199 0.919957
vt 0.070199 0.847807
vt 0.142350 0.847807
vt 0.142350 0.919957
vt 0.070199 0.919957
vt 0.070199 0.847807
vt 0.142350 0.847807
vt 0.142350 0.919957
vt 0.070199 0.919957
vt 0.070199 0.847807
vt 0.142350 0.847807
vt 0.142350 0.919957
vt 0.070199 0.919957
vt 0.070199 0.847807
vt 0.142350 0.847807
vt 0.142350 0.919957
vt 0.070199 0.919957
vt 0.070199 0.847807
vt 0.142350 0.847807
vt 0.142350 0.919957
vt 0.070199 0.919957
vt 0.070199 0.847807
vt 0.142350 0.847807
vt 0.142350 0.919957
vt 0.070199 0.919957
vt 0.070199 0.847807
vt 0.142350 0.847807
vt 0.142350 0.919957
vt 0.070199 0.919957
vt 0.070199 0.847807
vt 0.142350 0.847807
vt 0.142350 0.919957
vt 0.070199 0.919957
vt 0.070199 0.847807
vt 0.142350 0.847807
vt 0.142350 0.919957
vt 0.070199 0.919957
vt 0.070199 0.847807
vt 0.142350 0.847807
vt 0.142350 0.919957
vt 0.070199 0.919957
vt 0.070199 0.847807
vt 0.142350 0.847807
vt 0.142350 0.919957
vt 0.070199 0.919957
vt 0.142350 0.847807
vt 0.142350 0.919957
vt 0.070199 0.919957
vt 0.142350 0.919957
vt 0.070199 0.919957
vt 0.070199 0.847807
vt 0.142350 0.919957
vt 0.070199 0.919957
vt 0.142350 0.847807
vt 0.142350 0.919957
vt 0.070199 0.919957
vt 0.142350 0.919957
vt 0.070199 0.919957
vt 0.070199 0.847807
vt 0.142350 0.919957
vt 0.070199 0.919957
vt 0.070199 0.847807
vt 0.142350 0.847807
vt 0.142350 0.919957
vt 0.070199 0.919957
vt 0.142350 0.919957
vt 0.070199 0.919957
vt 0.142350 0.919957
vt 0.070199 0.919957
vt 0.070199 0.847807
vt 0.142350 0.847807
vt 0.142350 0.919957
vt 0.070199 0.919957
vt 0.070199 0.847807
vt 0.142350 0.847807
vt 0.142350 0.919957
vt 0.070199 0.919957
vt 0.142350 0.919957
vt 0.070199 0.919957
vt 0.070199 0.847807
vt 0.142350 0.847807
vt 0.142350 0.919957
vt 0.070199 0.919957
vt 0.070199 0.847807
vt 0.142350 0.847807
vt 0.142350 0.919957
vt 0.070199 0.919957
vt 0.142350 0.919957
vt 0.070199 0.919957
vt 0.070199 0.847807
vt 0.142350 0.847807
vt 0.142350 0.919957
vt 0.070199 0.919957
vt 0.142350 0.919957
vt 0.070199 0.919957
vt 0.070199 0.847807
vt 0.142350 0.847807
vt 0.142350 0.919957
vt 0.070199 0.919957
vt 0.142350 0.919957
vt 0.070199 0.919957
vt 0.070199 0.847807
vt 0.142350 0.847807
vt 0.142350 0.919957
vt 0.070199 0.919957
vt 0.142350 0.919957
vt 0.070199 0.919957
vt 0.070199 0.847807
vt 0.142350 0.847807
vt 0.142350 0.919957
vt 0.070199 0.919957
vt 0.070199 0.847807
vt 0.142350 0.919957
vt 0.070199 0.919957
vt 0.070199 0.847807
vt 0.142350 0.919957
vt 0.070199 0.919957
vt 0.070199 0.847807
vt 0.142350 0.847807
vt 0.142350 0.919957
vt 0.070199 0.919957
vt 0.142350 0.847807
vt 0.142350 0.919957
vt 0.070199 0.919957
vt 0.142350 0.847807
vt 0.142350 0.919957
vt 0.070199 0.919957
vt 0.142350 0.919957
vt 0.070199 0.919957
vt 0.142350 0.919957
vt 0.070199 0.919957
vt 0.142350 0.919957
vt 0.070199 0.919957
vt 0.070199 0.847807
vt 0.142350 0.847807
vt 0.142350 0.919957
vt 0.070199 0.919957
vt 0.142350 0.919957
vt 0.070199 0.919957
vt 0.142350 0.919957
vt 0.070199 0.919957
vt 0.070199 0.847807
vt 0.142350 0.919957
vt 0.070199 0.919957
vt 0.142350 0.847807
vt 0.142350 0.919957
vt 0.070199 0.919957
vt 0.142350 0.919957
vt 0.070199 0.919957
vt 0.070199 0.847807
vt 0.142350 0.919957
vt 0.070199 0.919957
vt 0.142350 0.847807
vt 0.142350 0.919957
vt 0.070199 0.919957
vt 0.142350 0.919957
vt 0.070199 0.919957
vt 0.142350 0.919957
vt 0.070199 0.919957
vt 0.142350 0.919957
vt 0.070199 0.919957
vt 0.070199 0.847807
vt 0.142350 0.847807
vt 0.142350 0.919957
vt 0.070199 0.919957
vt 0.070199 0.847807
vt 0.142350 0.847807
vt 0.142350 0.919957
vt 0.070199 0.919957
vt 0.142350 0.919957
vt 0.070199 0.919957
vt 0.142350 0.919957
vt 0.070199 0.919957
vt 0.070199 0.847807
vt 0.142350 0.847807
vt 0.142350 0.919957
vt 0.070199 0.919957
vt 0.070199 0.847807
vt 0.142350 0.847807
vt 0.142350 0.919957
vt 0.070199 0.919957
vt 0.070199 0.847807
vt 0.142350 0.847807
vt 0.142350 0.919957
vt 0.070199 0.919957
vt 0.070199 0.847807
vt 0.142350 0.847807
vt 0.142350 0.919957
vt 0.070199 0.919957
vt 0.070199 0.847807
vt 0.142350 0.847807
vt 0.142350 0.919957
vt 0.070199 0.919957
vt 0.070199 0.847807
vt 0.142350 0.847807
vt 0.142350 0.919957
vt 0.070199 0.919957
vt 0.070199 0.847807
vt 0.142350 0.847807
vt 0.142350 0.919957
vt 0.070199 0.919957
vt 0.070199 0.847807
vt 0.142350 0.847807
vt 0.142350 0.919957
vt 0.070199 0.919957
vt 0.142350 0.919957
vt 0.070199 0.919957
vt 0.142350 0.919957
vt 0.070199 0.919957
vt 0.070199 0.847807
vt 0.142350 0.847807
vt 0.142350 0.919957
vt 0.070199 0.919957
vt 0.142350 0.919957
vt 0.070199 0.919957
vt 0.070199 0.847807
vt 0.142350 0.847807
vt 0.142350 0.919957
vt 0.070199 0.919957
vt 0.142350 0.919957
vt 0.070199 0.919957
vt 0.070199 0.847807
vt 0.142350 0.847807
vn 0.0000 1.0000 0.0000
vn 0.0000 -1.0000 0.0000
vn 1.0000 0.0000 0.0000
vn -0.3090 0.0000 -0.9511
vn -0.8090 0.0000 0.5878
vn 0.8090 0.0000 0.5878
vn 0.3090 0.0000 -0.9511
vn -1.0000 0.0000 0.0000
vn 0.3090 0.0000 0.9511
vn 0.8090 0.0000 -0.5878
vn -0.8090 0.0000 -0.5878
vn -0.3090 0.0000 0.9511
usemtl Hydrant_color_map
s off
f 39/1/1 40/2/1 120/3/1 119/4/1
f 23/5/2 21/6/2 101/7/2 103/8/2
f 18/9/1 19/10/1 99/11/1 98/12/1
f 9/13/2 8/14/2 88/15/2 89/16/2
f 38/17/1 39/18/1 119/19/1 118/20/1
f 21/21/2 22/22/2 102/23/2 101/24/2
f 17/25/1 18/26/1 98/27/1 97/28/1
f 37/29/1 38/30/1 118/31/1 117/32/1
f 4/33/2 3/34/2 83/35/2 84/36/2
f 16/37/1 17/38/1 97/39/1 96/40/1
f 36/41/1 37/42/1 117/43/1 116/44/1
f 15/45/1 16/46/1 96/47/1 95/48/1
f 8/49/2 7/50/2 87/51/2 88/52/2
f 35/53/1 36/54/1 116/55/1 115/56/1
f 14/57/1 15/58/1 95/59/1 94/60/1
f 34/61/1 35/62/1 115/63/1 114/64/1
f 3/65/2 2/66/2 81/67/2 83/68/2
f 22/69/2 30/70/2 110/71/2 102/72/2
f 13/73/1 14/74/1 94/75/1 93/76/1
f 33/77/1 34/78/1 114/79/1 113/80/1
f 41/81/2 42/82/2 62/83/2 61/84/2
f 53/85/1 54/86/1 74/87/1 73/88/1
f 49/89/2 48/90/2 68/91/2 69/92/2
f 60/93/1 52/94/1 72/95/1 80/96/1
f 51/97/1 53/98/1 73/99/1 71/100/1
f 48/101/2 47/102/2 67/103/2 68/104/2
f 59/105/1 60/106/1 80/107/1 79/108/1
f 52/109/1 51/110/1 71/111/1 72/112/1
f 47/113/2 46/114/2 66/115/2 67/116/2
f 58/117/1 59/118/1 79/119/1 78/120/1
f 64/121/3 63/122/3 73/99/3 74/123/3
f 62/124/4 70/125/4 80/107/4 72/112/4
f 68/126/5 67/127/5 77/128/5 78/120/5
f 65/129/6 64/130/6 74/87/6 75/131/6
f 61/132/7 62/133/7 72/95/7 71/100/7
f 69/134/8 68/135/8 78/136/8 79/108/8
f 66/137/9 65/138/9 75/139/9 76/140/9
f 63/141/10 61/142/10 71/111/10 73/88/10
f 70/143/11 69/144/11 79/119/11 80/96/11
f 67/145/12 66/146/12 76/147/12 77/148/12
f 50/149/2 49/150/2 69/151/2 70/152/2
f 54/153/1 55/154/1 75/139/1 74/123/1
f 43/155/2 41/156/2 61/157/2 63/158/2
f 42/159/2 50/160/2 70/161/2 62/162/2
f 55/163/1 56/164/1 76/147/1 75/131/1
f 44/165/2 43/166/2 63/167/2 64/168/2
f 56/169/1 57/170/1 77/128/1 76/140/1
f 45/171/2 44/172/2 64/173/2 65/174/2
f 57/175/1 58/176/1 78/136/1 77/148/1
f 46/177/2 45/178/2 65/179/2 66/180/2
f 85/181/6 84/182/6 94/75/6 95/48/6
f 81/183/7 82/184/7 92/185/7 91/186/7
f 84/187/3 83/188/3 93/189/3 94/60/3
f 83/190/10 81/191/10 91/192/10 93/76/10
f 82/193/4 90/194/4 100/195/4 92/196/4
f 90/197/11 89/198/11 99/11/11 100/199/11
f 89/200/8 88/201/8 98/27/8 99/202/8
f 88/203/5 87/204/5 97/39/5 98/12/5
f 87/205/12 86/206/12 96/47/12 97/28/12
f 86/207/9 85/208/9 95/59/9 96/40/9
f 101/209/7 102/210/7 112/211/7 111/212/7
f 109/213/8 108/214/8 118/31/8 119/4/8
f 106/215/9 105/216/9 115/63/9 116/44/9
f 103/217/10 101/218/10 111/219/10 113/80/10
f 110/220/11 109/221/11 119/19/11 120/222/11
f 107/223/12 106/224/12 116/55/12 117/32/12
f 104/225/3 103/226/3 113/227/3 114/64/3
f 102/228/4 110/229/4 120/3/4 112/230/4
f 108/231/5 107/232/5 117/43/5 118/20/5
f 105/233/6 104/234/6 114/79/6 115/56/6
f 19/235/1 20/236/1 100/195/1 99/202/1
f 5/237/2 4/238/2 84/239/2 85/240/2
f 24/241/2 23/242/2 103/243/2 104/244/2
f 40/245/1 32/246/1 112/211/1 120/222/1
f 20/247/1 12/248/1 92/185/1 100/199/1
f 25/249/2 24/250/2 104/251/2 105/252/2
f 10/253/2 9/254/2 89/255/2 90/256/2
f 26/257/2 25/258/2 105/259/2 106/260/2
f 6/261/2 5/262/2 85/263/2 86/264/2
f 27/265/2 26/266/2 106/267/2 107/268/2
f 2/269/2 1/270/2 82/271/2 81/272/2
f 28/273/2 27/274/2 107/275/2 108/276/2
f 1/277/2 10/278/2 90/279/2 82/280/2
f 32/281/1 31/282/1 111/219/1 112/230/1
f 12/283/1 11/284/1 91/192/1 92/196/1
f 29/285/2 28/286/2 108/287/2 109/288/2
f 31/289/1 33/290/1 113/227/1 111/212/1
f 7/291/2 6/292/2 86/293/2 87/294/2
f 11/295/1 13/296/1 93/189/1 91/186/1
f 30/297/2 29/298/2 109/299/2 110/300/2
