# Blender v2.80 (sub 35) OBJ File: 'LD 43 3d Models.blend'
# www.blender.org
mtllib Mailbox Trim.mtl
o mailbox_edge_Cube.005
v -0.918972 0.253678 1.000000
v -1.000000 0.253678 0.912019
v -1.000000 0.253678 -0.912019
v -0.918972 0.253678 -1.000000
v -0.918972 3.687022 -1.000000
v -1.000000 3.687022 -0.909381
v 1.000000 0.253678 0.912019
v 0.918972 0.253678 1.000000
v 0.918972 0.253678 -1.000000
v 1.000000 0.253678 -0.912019
v 1.000000 3.687022 -0.909381
v 0.918972 3.687022 -1.000000
v -0.918972 3.932048 0.932021
v -1.000000 3.932048 0.839108
v -1.000000 3.932048 -0.839108
v -0.918972 3.932048 -0.932021
v 0.918972 3.932048 -0.932021
v 1.000000 3.932048 -0.839108
v 1.000000 3.932048 0.839108
v 0.918972 3.932048 0.932021
v -0.918972 4.129587 0.658688
v -1.000000 4.129587 0.560429
v -1.000000 4.129587 -0.560429
v -0.918972 4.129587 -0.658688
v 0.918972 4.129587 -0.658688
v 1.000000 4.129587 -0.560429
v 1.000000 4.129587 0.560429
v 0.918972 4.129587 0.658688
v -1.000000 4.170318 0.447724
v -0.918972 4.251346 0.336804
v -1.000000 4.170318 -0.447724
v -0.918972 4.251346 -0.336804
v 1.000000 4.170318 -0.447724
v 0.918972 4.251346 -0.336804
v 1.000000 4.170318 0.447724
v 0.918972 4.251346 0.336804
v -0.918972 1.398126 1.000000
v -1.000000 1.398126 0.911741
v -0.918972 2.542574 -1.000000
v -1.000000 2.551569 -0.910885
v -1.000000 1.398126 -0.911741
v -0.918972 1.398126 -1.000000
v 1.000000 2.551569 -0.910885
v 0.918972 2.542574 -1.000000
v 0.918972 1.398126 -1.000000
v 1.000000 1.398126 -0.911741
v 1.000000 1.398126 0.911741
v 0.918972 1.398126 1.000000
v -1.000000 2.735452 0.910885
v -0.918972 2.744447 1.000000
v -0.918972 3.687022 1.000000
v -1.000000 3.687022 0.909381
v 0.918972 3.687022 1.000000
v 1.000000 3.687022 0.909381
v 0.918972 2.744447 1.000000
v 1.000000 2.735452 0.910885
v -0.918972 0.600480 -1.000000
v -1.000000 0.600480 -0.911935
v 1.000000 0.600480 -0.911935
v 0.918972 0.600480 -1.000000
v 0.918972 0.600480 1.000000
v 1.000000 0.600480 0.911935
v -0.918972 0.600480 1.000000
v -1.000000 0.600480 0.911935
vt 0.041216 0.907412
vt 0.097510 0.907412
vt 0.097510 0.963705
vt 0.041216 0.963705
vt 0.041216 0.907412
vt 0.097510 0.907412
vt 0.097510 0.963705
vt 0.041216 0.963705
vt 0.041216 0.907412
vt 0.097510 0.907412
vt 0.097510 0.963705
vt 0.041216 0.963705
vt 0.041216 0.907412
vt 0.097510 0.907412
vt 0.097510 0.963705
vt 0.041216 0.963705
vt 0.041216 0.907412
vt 0.097510 0.907412
vt 0.097510 0.963705
vt 0.041216 0.963705
vt 0.041216 0.907412
vt 0.097510 0.907412
vt 0.097510 0.963705
vt 0.041216 0.963705
vt 0.041216 0.907412
vt 0.097510 0.907412
vt 0.097510 0.963705
vt 0.041216 0.963705
vt 0.041216 0.907412
vt 0.097510 0.907412
vt 0.097510 0.963705
vt 0.041216 0.963705
vt 0.041216 0.907412
vt 0.097510 0.907412
vt 0.097510 0.963705
vt 0.041216 0.963705
vt 0.041216 0.907412
vt 0.097510 0.907412
vt 0.097510 0.963705
vt 0.041216 0.963705
vt 0.041216 0.907412
vt 0.097510 0.907412
vt 0.097510 0.963705
vt 0.041216 0.963705
vt 0.041216 0.907412
vt 0.097510 0.907412
vt 0.097510 0.963705
vt 0.041216 0.963705
vt 0.041216 0.907412
vt 0.097510 0.907412
vt 0.097510 0.963705
vt 0.041216 0.963705
vt 0.041216 0.907412
vt 0.097510 0.907412
vt 0.097510 0.963705
vt 0.041216 0.963705
vt 0.041216 0.907412
vt 0.097510 0.907412
vt 0.097510 0.963705
vt 0.041216 0.963705
vt 0.041216 0.907412
vt 0.097510 0.907412
vt 0.097510 0.963705
vt 0.041216 0.963705
vt 0.041216 0.907412
vt 0.097510 0.907412
vt 0.097510 0.963705
vt 0.041216 0.963705
vt 0.041216 0.907412
vt 0.097510 0.907412
vt 0.097510 0.963705
vt 0.041216 0.963705
vt 0.041216 0.907412
vt 0.097510 0.907412
vt 0.097510 0.963705
vt 0.041216 0.963705
vt 0.041216 0.907412
vt 0.097510 0.907412
vt 0.097510 0.963705
vt 0.041216 0.963705
vt 0.041216 0.907412
vt 0.097510 0.907412
vt 0.097510 0.963705
vt 0.041216 0.963705
vt 0.041216 0.907412
vt 0.097510 0.907412
vt 0.097510 0.963705
vt 0.041216 0.963705
vt 0.041216 0.907412
vt 0.097510 0.907412
vt 0.097510 0.963705
vt 0.041216 0.963705
vt 0.041216 0.907412
vt 0.097510 0.907412
vt 0.097510 0.963705
vt 0.041216 0.963705
vt 0.041216 0.907412
vt 0.097510 0.907412
vt 0.097510 0.963705
vt 0.041216 0.963705
vt 0.041216 0.907412
vt 0.097510 0.907412
vt 0.097510 0.963705
vt 0.041216 0.963705
vt 0.041216 0.907412
vt 0.097510 0.907412
vt 0.097510 0.963705
vt 0.041216 0.963705
vt 0.041216 0.907412
vt 0.097510 0.963705
vt 0.041216 0.963705
vt 0.041216 0.907412
vt 0.097510 0.963705
vt 0.041216 0.963705
vt 0.041216 0.907412
vt 0.097510 0.963705
vt 0.041216 0.963705
vn -0.7427 0.0005 0.6696
vn -0.7369 0.1836 -0.6506
vn 0.7369 0.1836 -0.6506
vn 0.7369 0.1836 0.6506
vn -0.7369 0.1836 0.6506
vn 0.5660 0.6704 -0.4798
vn 0.5660 0.6704 0.4798
vn -0.5660 0.6704 0.4798
vn -0.5660 0.6704 -0.4798
vn -0.7071 0.7071 0.0000
vn 0.7071 0.7071 0.0000
vn 0.4035 0.8570 0.3204
vn -0.4035 0.8570 0.3204
vn -0.4035 0.8570 -0.3204
vn 0.4035 0.8570 -0.3204
vn -0.7363 0.0001 0.6767
vn -0.7383 0.0002 0.6745
vn -0.7427 0.0004 -0.6696
vn -0.7383 0.0003 -0.6745
vn 0.7427 0.0004 -0.6696
vn 0.7383 0.0003 -0.6745
vn 0.7427 0.0005 0.6696
vn 0.7383 0.0002 0.6745
vn 0.7363 0.0001 0.6767
vn 0.7363 0.0001 -0.6767
vn -0.7363 0.0001 -0.6767
vn -0.7357 0.0001 0.6773
vn -0.7357 0.0001 -0.6773
vn 0.7357 0.0001 -0.6773
vn 0.7357 0.0001 0.6773
usemtl Material.001
s off
f 50/1/1 51/2/1 52/3/1 49/4/1
f 6/5/2 15/6/2 16/7/2 5/8/2
f 18/9/3 11/10/3 12/11/3 17/12/3
f 20/13/4 53/14/4 54/15/4 19/16/4
f 51/17/5 13/18/5 14/19/5 52/20/5
f 17/21/6 25/22/6 26/23/6 18/24/6
f 28/25/7 20/26/7 19/27/7 27/28/7
f 13/29/8 21/30/8 22/31/8 14/32/8
f 24/33/9 16/34/9 15/35/9 23/36/9
f 30/37/10 32/38/10 31/39/10 29/40/10
f 34/41/11 36/42/11 35/43/11 33/44/11
f 27/45/12 35/46/12 36/47/12 28/48/12
f 29/49/13 22/50/13 21/51/13 30/52/13
f 23/53/14 31/54/14 32/55/14 24/56/14
f 33/57/15 26/58/15 25/59/15 34/60/15
f 63/61/16 37/62/16 38/63/16 64/64/16
f 37/65/17 50/66/17 49/67/17 38/68/17
f 5/69/18 39/70/18 40/71/18 6/72/18
f 39/73/19 42/74/19 41/75/19 40/76/19
f 11/77/20 43/78/20 44/79/20 12/80/20
f 43/81/21 46/82/21 45/83/21 44/84/21
f 53/85/22 55/86/22 56/87/22 54/88/22
f 55/89/23 48/90/23 47/91/23 56/92/23
f 48/93/24 61/94/24 62/95/24 47/96/24
f 46/97/25 59/98/25 60/99/25 45/100/25
f 42/101/26 57/102/26 58/103/26 41/104/26
f 64/105/27 2/106/27 1/107/27 63/108/27
f 58/109/28 57/102/28 4/110/28 3/111/28
f 60/112/29 59/98/29 10/113/29 9/114/29
f 62/115/30 61/94/30 8/116/30 7/117/30
