# Blender v2.80 (sub 35) OBJ File: 'LD 43 3d Models.blend'
# www.blender.org
mtllib Mailbox Shell.mtl
o mailbox_Cube.008
v -0.935022 3.622044 1.000000
v 0.935022 3.622044 1.000000
v -0.935022 2.809425 1.000000
v 0.935022 2.809425 1.000000
v -0.935022 2.765740 0.849161
v -0.935022 3.622044 0.849161
v 0.935022 3.622044 0.849161
v 0.935022 2.765740 0.849161
v -0.935022 2.765740 -0.582489
v -0.935022 3.622044 -0.582489
v 0.935022 3.622044 -0.582489
v 0.935022 2.765740 -0.582489
v 0.935022 1.654877 0.849161
v -0.935022 1.654877 0.849161
v 0.935022 1.654877 -0.582489
v -0.935022 1.654877 -0.582489
v -0.918972 0.253678 1.000000
v -1.000000 0.253678 0.912019
v -1.000000 0.253678 -0.912019
v -0.918972 0.253678 -1.000000
v -0.918972 3.687022 -1.000000
v -1.000000 3.687022 -0.909381
v 1.000000 0.253678 0.912019
v 0.918972 0.253678 1.000000
v 0.918972 0.253678 -1.000000
v 1.000000 0.253678 -0.912019
v 1.000000 3.687022 -0.909381
v 0.918972 3.687022 -1.000000
v -0.918972 3.932048 0.932021
v -1.000000 3.932048 0.839108
v -1.000000 3.932048 -0.839108
v -0.918972 3.932048 -0.932021
v 0.918972 3.932048 -0.932021
v 1.000000 3.932048 -0.839108
v 1.000000 3.932048 0.839108
v 0.918972 3.932048 0.932021
v -0.918972 4.129587 0.658688
v -1.000000 4.129587 0.560429
v -1.000000 4.129587 -0.560429
v -0.918972 4.129587 -0.658688
v 0.918972 4.129587 -0.658688
v 1.000000 4.129587 -0.560429
v 1.000000 4.129587 0.560429
v 0.918972 4.129587 0.658688
v -1.000000 4.170318 0.447724
v -0.918972 4.251346 0.336804
v -1.000000 4.170318 -0.447724
v -0.918972 4.251346 -0.336804
v 1.000000 4.170318 -0.447724
v 0.918972 4.251346 -0.336804
v 1.000000 4.170318 0.447724
v 0.918972 4.251346 0.336804
v -0.918972 1.398126 1.000000
v -1.000000 1.398126 0.911741
v -0.918972 2.542574 -1.000000
v -1.000000 2.551569 -0.910885
v -1.000000 1.398126 -0.911741
v -0.918972 1.398126 -1.000000
v 1.000000 2.551569 -0.910885
v 0.918972 2.542574 -1.000000
v 0.918972 1.398126 -1.000000
v 1.000000 1.398126 -0.911741
v 1.000000 1.398126 0.911741
v 0.918972 1.398126 1.000000
v -1.000000 2.735452 0.910885
v -0.918972 2.744447 1.000000
v -0.918972 3.687022 1.000000
v -1.000000 3.687022 0.909381
v 0.918972 3.687022 1.000000
v 1.000000 3.687022 0.909381
v 0.918972 2.744447 1.000000
v 1.000000 2.735452 0.910885
v -0.918972 0.600480 -1.000000
v -1.000000 0.600480 -0.911935
v 1.000000 0.600480 -0.911935
v 0.918972 0.600480 -1.000000
v 0.918972 0.600480 1.000000
v 1.000000 0.600480 0.911935
v -0.918972 0.600480 1.000000
v -1.000000 0.600480 0.911935
v -0.823022 0.600480 -0.895590
v -0.823022 0.253678 -0.895590
v -0.895590 0.253678 -0.816795
v 0.895590 0.600480 -0.816720
v 0.895590 0.253678 -0.816795
v 0.823022 0.253678 -0.895590
v 0.823022 0.600480 0.895590
v 0.823022 0.253678 0.895590
v 0.895590 0.253678 0.816795
v -0.895590 0.253678 0.816795
v -0.823022 0.253678 0.895590
v -0.895590 0.600480 0.816720
v -0.895590 0.600480 -0.816720
v 0.823022 0.600480 -0.895590
v 0.895590 0.600480 0.816720
v -0.823022 0.600480 0.895590
vt 0.332813 0.842195
vt 0.416188 0.842195
vt 0.416188 0.925570
vt 0.332813 0.925570
vt 0.332813 0.842195
vt 0.416188 0.842195
vt 0.416188 0.925570
vt 0.332813 0.925570
vt 0.332813 0.842195
vt 0.416188 0.842195
vt 0.416188 0.925570
vt 0.332813 0.925570
vt 0.332813 0.842195
vt 0.416188 0.842195
vt 0.416188 0.925570
vt 0.332813 0.925570
vt 0.332813 0.842195
vt 0.416188 0.842195
vt 0.416188 0.925570
vt 0.332813 0.925570
vt 0.332813 0.842195
vt 0.416188 0.842195
vt 0.416188 0.925570
vt 0.332813 0.925570
vt 0.332813 0.842195
vt 0.416188 0.842195
vt 0.416188 0.925570
vt 0.332813 0.925570
vt 0.332813 0.842195
vt 0.416188 0.842195
vt 0.416188 0.925570
vt 0.332813 0.925570
vt 0.332813 0.842195
vt 0.416188 0.925570
vt 0.332813 0.925570
vt 0.332813 0.842195
vt 0.416188 0.842195
vt 0.416188 0.925570
vt 0.332813 0.925570
vt 0.332813 0.842195
vt 0.416188 0.842195
vt 0.416188 0.925570
vt 0.332813 0.925570
vt 0.332813 0.842195
vt 0.416188 0.842195
vt 0.416188 0.925570
vt 0.332813 0.925570
vt 0.332813 0.842195
vt 0.416188 0.842195
vt 0.416188 0.925570
vt 0.332813 0.925570
vt 0.332813 0.842195
vt 0.416188 0.842195
vt 0.416188 0.925570
vt 0.332813 0.925570
vt 0.332813 0.842195
vt 0.416188 0.842195
vt 0.416188 0.925570
vt 0.332813 0.925570
vt 0.332813 0.842195
vt 0.416188 0.842195
vt 0.416188 0.925570
vt 0.332813 0.925570
vt 0.332813 0.842195
vt 0.416188 0.842195
vt 0.416188 0.925570
vt 0.332813 0.925570
vt 0.332813 0.842195
vt 0.416188 0.842195
vt 0.416188 0.925570
vt 0.332813 0.925570
vt 0.332813 0.842195
vt 0.416188 0.842195
vt 0.416188 0.925570
vt 0.332813 0.925570
vt 0.332813 0.842195
vt 0.416188 0.842195
vt 0.416188 0.925570
vt 0.332813 0.925570
vt 0.332813 0.842195
vt 0.416188 0.925570
vt 0.332813 0.925570
vt 0.332813 0.842195
vt 0.416188 0.842195
vt 0.416188 0.925570
vt 0.332813 0.925570
vt 0.332813 0.842195
vt 0.416188 0.925570
vt 0.332813 0.925570
vt 0.332813 0.842195
vt 0.416188 0.842195
vt 0.416188 0.925570
vt 0.332813 0.925570
vt 0.332813 0.842195
vt 0.416188 0.842195
vt 0.416188 0.925570
vt 0.332813 0.925570
vt 0.416188 0.842195
vt 0.332813 0.925570
vt 0.332813 0.842195
vt 0.416188 0.842195
vt 0.416188 0.925570
vt 0.332813 0.925570
vt 0.332813 0.842195
vt 0.416188 0.925570
vt 0.332813 0.925570
vt 0.332813 0.842195
vt 0.416188 0.842195
vt 0.416188 0.925570
vt 0.332813 0.925570
vt 0.416188 0.925570
vt 0.332813 0.925570
vt 0.416188 0.925570
vt 0.332813 0.925570
vt 0.416188 0.925570
vt 0.332813 0.925570
vt 0.332813 0.842195
vt 0.416188 0.842195
vt 0.416188 0.925570
vt 0.332813 0.925570
vt 0.416188 0.842195
vt 0.416188 0.925570
vt 0.332813 0.925570
vt 0.332813 0.842195
vt 0.416188 0.842195
vt 0.332813 0.925570
vt 0.332813 0.842195
vt 0.416188 0.842195
vt 0.416188 0.925570
vt 0.332813 0.925570
vt 0.332813 0.842195
vt 0.416188 0.842195
vt 0.416188 0.925570
vt 0.332813 0.925570
vt 0.332813 0.842195
vt 0.416188 0.842195
vt 0.416188 0.925570
vt 0.332813 0.925570
vt 0.416188 0.842195
vt 0.332813 0.925570
vt 0.332813 0.842195
vt 0.416188 0.925570
vt 0.332813 0.842195
vt 0.416188 0.842195
vt 0.416188 0.925570
vt 0.332813 0.842195
vt 0.416188 0.842195
vt 0.416188 0.925570
vt 0.332813 0.925570
vt 0.332813 0.842195
vt 0.416188 0.842195
vt 0.416188 0.925570
vt 0.332813 0.925570
vt 0.332813 0.842195
vt 0.416188 0.842195
vt 0.416188 0.925570
vt 0.332813 0.925570
vt 0.332813 0.842195
vt 0.416188 0.842195
vt 0.416188 0.925570
vt 0.332813 0.925570
vt 0.374500 0.925570
vt 0.403978 0.913360
vt 0.416188 0.883882
vt 0.403978 0.854405
vt 0.374500 0.842195
vt 0.345023 0.854405
vt 0.332813 0.883882
vt 0.345023 0.913360
vt 0.332813 0.842195
vt 0.416188 0.925570
vt 0.332813 0.925570
vt 0.332813 0.842195
vt 0.416188 0.842195
vt 0.416188 0.925570
vt 0.332813 0.925570
vt 0.332813 0.842195
vt 0.416188 0.842195
vt 0.332813 0.925570
vt 0.332813 0.842195
vt 0.416188 0.925570
vt 0.332813 0.925570
vt 0.332813 0.842195
vt 0.416188 0.842195
vt 0.416188 0.925570
vt 0.416188 0.842195
vt 0.416188 0.925570
vt 0.332813 0.925570
vt 0.332813 0.842195
vt 0.416188 0.842195
vt 0.332813 0.925570
vt 0.416188 0.842195
vt 0.416188 0.925570
vt 0.332813 0.925570
vt 0.332813 0.842195
vt 0.416188 0.842195
vt 0.416188 0.925570
vt 0.332813 0.842195
vt 0.416188 0.842195
vt 0.332813 0.925570
vt 0.332813 0.842195
vt 0.416188 0.925570
vt 0.332813 0.925570
vt 0.416188 0.842195
vt 0.416188 0.925570
vt 0.332813 0.925570
vt 0.332813 0.842195
vt 0.416188 0.842195
vt 0.416188 0.925570
vt 0.416188 0.842195
vt 0.416188 0.925570
vt 0.332813 0.925570
vt 0.332813 0.842195
vt 0.416188 0.925570
vt 0.332813 0.925570
vt 0.332813 0.842195
vt 0.416188 0.842195
vt 0.332813 0.925570
vn 1.0000 0.0000 0.0000
vn 0.0000 0.2673 -0.9636
vn -1.0000 -0.0000 0.0000
vn 0.0000 0.0000 1.0000
vn 0.0000 0.0000 -1.0000
vn 0.0000 0.8105 -0.5857
vn 0.0000 0.9353 -0.3538
vn 0.0000 0.8105 0.5857
vn 0.0000 0.2673 0.9636
vn 0.0000 1.0000 0.0000
vn 0.0000 0.9353 0.3538
vn 0.0000 0.9605 -0.2782
vn 0.0000 -1.0000 0.0000
vn 0.6738 -0.0002 -0.7389
vn 0.7357 -0.0001 0.6773
vn -0.7357 -0.0001 0.6773
vn -0.7357 -0.0001 -0.6773
vn 0.7357 -0.0001 -0.6773
vn 0.7363 0.0000 0.6766
vn 0.6738 -0.0002 0.7389
vn -0.6738 -0.0002 -0.7389
vn -0.6738 -0.0002 0.7389
vn 0.7363 0.0000 -0.6766
vn -0.7363 0.0000 -0.6766
vn -0.7363 0.0000 0.6766
usemtl Material.002
s off
f 75/1/1 62/2/1 63/3/1 78/4/1
f 28/5/2 21/6/2 32/7/2 33/8/2
f 31/9/3 30/10/3 38/11/3 39/12/3
f 4/13/3 2/14/3 7/15/3 8/16/3
f 77/17/4 64/18/4 53/19/4 79/20/4
f 65/21/3 68/22/3 22/23/3 56/24/3
f 39/25/3 38/26/3 45/27/3 47/28/3
f 59/29/1 27/30/1 70/31/1 72/32/1
f 55/33/5 21/6/5 28/34/5 60/35/5
f 33/36/6 32/37/6 40/38/6 41/39/6
f 41/40/7 40/41/7 48/42/7 50/43/7
f 29/44/8 36/45/8 44/46/8 37/47/8
f 67/48/9 69/49/9 36/50/9 29/51/9
f 35/52/1 34/53/1 42/54/1 43/55/1
f 54/56/3 65/57/3 56/58/3 57/59/3
f 43/60/1 42/61/1 49/62/1 51/63/1
f 50/64/10 48/65/10 46/66/10 52/67/10
f 37/68/11 44/69/11 52/70/11 46/71/11
f 73/72/5 58/73/5 61/74/5 76/75/5
f 58/76/5 55/77/5 60/78/5 61/79/5
f 70/80/1 27/30/1 34/81/1 35/82/1
f 3/83/5 1/84/5 67/85/5 66/86/5
f 22/87/3 68/22/3 30/88/3 31/89/3
f 62/90/1 59/91/1 72/92/1 63/93/1
f 64/94/4 71/95/4 66/96/4 53/97/4
f 4/13/4 3/98/4 66/96/4 71/99/4
f 2/100/5 4/101/5 71/102/5 69/103/5
f 1/104/4 2/14/4 69/105/4 67/106/4
f 6/107/1 5/108/1 9/109/1 10/110/1
f 1/104/1 3/98/1 5/111/1 6/112/1
f 3/83/12 4/101/12 8/113/12 5/114/12
f 2/100/13 1/84/13 6/115/13 7/116/13
f 12/117/4 11/118/4 10/119/4 9/120/4
f 12/117/4 9/121/4 16/122/4 15/123/4
f 7/124/13 6/125/13 10/119/13 11/126/13
f 8/127/3 7/128/3 11/129/3 12/130/3
f 14/131/10 13/132/10 15/133/10 16/134/10
f 5/135/5 8/136/5 13/137/5 14/138/5
f 8/127/3 12/139/3 15/133/3 13/140/3
f 9/141/1 5/108/1 14/142/1 16/134/1
f 23/143/14 89/144/14 95/145/14 78/4/14
f 18/146/13 90/147/13 91/148/13 17/149/13
f 74/150/10 93/151/10 81/152/10 73/153/10
f 80/154/3 54/155/3 57/156/3 74/157/3
f 24/158/13 88/159/13 89/160/13 23/161/13
f 79/162/13 80/163/13 74/164/13 73/165/13 76/166/13 75/167/13 78/168/13 77/169/13
f 81/170/15 93/151/15 83/171/15 82/172/15
f 84/173/16 94/174/16 86/175/16 85/176/16
f 87/177/17 95/178/17 89/160/17 88/179/17
f 91/180/18 90/147/18 92/181/18 96/182/18
f 17/183/19 91/184/19 96/185/19 79/20/19
f 75/1/20 84/186/20 85/187/20 26/188/20
f 26/189/13 85/190/13 86/175/13 25/191/13
f 80/154/21 92/192/21 90/193/21 18/194/21
f 19/195/22 83/196/22 93/197/22 74/157/22
f 79/198/10 96/199/10 92/181/10 80/200/10
f 78/201/10 95/178/10 87/202/10 77/203/10
f 73/72/23 81/204/23 82/205/23 20/206/23
f 25/207/24 86/208/24 94/209/24 76/75/24
f 77/17/25 87/210/25 88/211/25 24/212/25
f 76/213/10 94/174/10 84/214/10 75/215/10
f 20/216/13 82/217/13 83/171/13 19/218/13
