# Blender v2.80 (sub 35) OBJ File: 'handbase1.blend'
# www.blender.org
mtllib handbase1.mtl
o Cube
v 0.317777 0.634783 -1.000000
v 0.317777 -0.577245 -0.704174
v 0.436931 0.916655 1.011500
v 0.353603 -0.577245 0.704055
v -0.301297 1.143091 -1.000000
v -0.301297 -0.577245 -0.704174
v -0.195213 1.424963 1.012153
v -0.278541 -0.577245 0.704055
v -0.536540 -0.577245 -0.000412
v 0.469097 0.895864 -0.000501
v -0.308851 1.238708 -0.000501
v 0.469097 -0.577245 -0.000412
v -0.469298 -0.577245 0.351821
v 0.440295 0.926967 0.499096
v -0.253438 0.424658 0.499750
v 0.440295 -0.577245 0.351821
v -0.308142 0.354309 -0.500250
v 0.402418 -0.577245 -0.352293
v -0.500000 -0.577245 -0.352293
v 0.402418 0.797582 -0.500250
v 0.051667 -0.157779 1.198238
v 0.134995 1.033091 1.506336
v 0.463184 1.033091 1.506336
v 0.379857 -0.157779 1.198238
v -0.153225 -0.577245 -0.704174
v -0.044015 1.424963 1.012153
v -0.127343 -0.577245 0.704055
v -0.153225 1.143091 -1.000000
v -0.296009 -0.577245 -0.000412
v -0.296009 1.404172 -0.000501
v -0.251739 -0.577245 0.351821
v -0.251739 1.435275 0.499750
v -0.284157 1.305890 -0.500250
v -0.284157 -0.577245 -0.352293
v 0.151199 1.033091 1.506336
v 0.130165 -0.157779 1.198238
v 0.242222 -0.577245 0.704055
v 0.208698 1.143091 -1.000000
v 0.291907 1.404172 -0.000501
v 0.280027 1.435275 0.499750
v 0.243415 1.305890 -0.500250
v 0.322031 -0.157779 1.198238
v 0.208698 -0.577245 -0.704174
v 0.325549 1.424963 1.012153
v 0.291907 -0.577245 -0.000412
v 0.280027 -0.577245 0.351821
v 0.243415 -0.577245 -0.352293
v 0.405359 1.033091 1.506336
v -0.153225 2.473071 -1.433257
v -0.284157 2.635870 -0.933507
v 0.208698 2.473071 -1.433257
v 0.243415 2.635870 -0.933507
v -0.284157 2.952602 -0.824095
v -0.296009 3.050884 -0.324345
v 0.291907 3.050884 -0.324345
v 0.243415 2.952602 -0.824095
v -0.296009 3.204583 -0.112443
v -0.251739 3.235687 0.387808
v 0.291907 3.204583 -0.112443
v 0.280027 3.235687 0.387808
v 0.325549 3.067773 1.041829
v -0.044015 3.067773 1.041829
v -0.251739 3.078085 0.529426
v 0.280027 3.078085 0.529425
v 0.325549 2.199545 1.626373
v 0.120774 2.167006 1.589656
v 0.405359 1.997295 1.715577
v 0.151199 1.997295 1.715577
vt 0.565204 0.187469
vt 0.625000 0.187469
vt 0.625000 0.250000
vt 0.565204 0.250000
vt 0.580951 1.000000
vt 0.625000 1.000000
vt 0.625000 1.000000
vt 0.580951 1.000000
vt 0.375000 0.687531
vt 0.625000 0.687531
vt 0.625000 0.750000
vt 0.375000 0.750000
vt 0.580951 0.937469
vt 0.625000 0.937469
vt 0.125000 0.687469
vt 0.375000 0.687469
vt 0.375000 0.750000
vt 0.125000 0.750000
vt 0.625000 0.705951
vt 0.875000 0.705951
vt 0.875000 0.750000
vt 0.625000 0.750000
vt 0.125000 0.562469
vt 0.375000 0.562469
vt 0.375000 0.624937
vt 0.125000 0.624937
vt 0.580951 0.812469
vt 0.625000 0.812469
vt 0.625000 0.874937
vt 0.580951 0.874937
vt 0.375000 0.562531
vt 0.625000 0.562531
vt 0.625000 0.625063
vt 0.375000 0.625063
vt 0.565204 0.062469
vt 0.625000 0.062469
vt 0.625000 0.124937
vt 0.565204 0.124937
vt 0.375000 0.500000
vt 0.625000 0.500000
vt 0.565204 0.000000
vt 0.625000 0.000000
vt 0.580951 0.750000
vt 0.125000 0.500000
vt 0.375000 0.500000
vt 0.375000 0.440204
vt 0.625000 0.440204
vt 0.625000 0.500000
vt 0.375000 0.500000
vt 0.625000 0.250000
vt 0.565204 0.250000
vt 0.375000 0.750000
vt 0.125000 0.750000
vt 0.625000 0.294049
vt 0.625000 0.294049
vt 0.625000 0.440204
vt 0.375000 0.294049
vt 0.434796 0.750000
vt 0.434796 0.812469
vt 0.375000 0.812469
vt 0.419049 0.062469
vt 0.419049 0.062469
vt 0.565204 0.062469
vt 0.419049 0.124937
vt 0.565204 0.124937
vt 0.419049 0.124937
vt 0.375000 0.874937
vt 0.434796 0.874937
vt 0.434796 0.937469
vt 0.375000 0.937469
vt 0.565204 0.062469
vt 0.419049 0.062469
vt 0.625000 0.500000
vt 0.875000 0.500000
vt 0.875000 0.559796
vt 0.625000 0.559796
vt 0.434796 1.000000
vt 0.375000 1.000000
vt 0.434796 1.000000
vt 0.375000 1.000000
vt 0.419049 0.187469
vt 0.565204 0.187469
vt 0.419049 0.187469
vt 0.375000 0.187469
vt 0.419049 0.250000
vt 0.375000 0.250000
vt 0.375000 0.062469
vt 0.375000 0.124937
vt 0.375000 0.000000
vt 0.419049 0.000000
vt 0.375000 0.250000
vt 0.625000 0.250000
vt 0.419049 0.250000
vt 0.375000 0.250000
vt 0.419049 0.000000
vt 0.565204 0.000000
vt 0.875000 0.559796
vt 0.875000 0.705951
vt 0.565204 0.124937
vt 0.419049 0.124937
vt 0.565204 0.187469
vt 0.419049 0.187469
vt 0.565204 0.250000
vt 0.419049 0.250000
vt 0.419049 0.250000
vt 0.565204 0.250000
vt 0.565204 0.250000
vt 0.419049 0.250000
vn -0.9826 0.1487 0.1114
vn 0.0000 -0.7624 0.6471
vn -0.9787 0.0370 -0.2019
vn 0.0000 -1.0000 0.0000
vn 0.9937 -0.0432 0.1030
vn -0.4185 -0.1796 -0.8903
vn 0.9881 -0.0080 -0.1538
vn -0.9540 0.1361 0.2673
vn -0.9984 0.0329 -0.0449
vn -0.9766 0.0662 0.2046
vn 0.9977 -0.0033 0.0676
vn -0.9940 0.0123 0.1087
vn -0.9838 0.1779 -0.0242
vn 0.9815 -0.0324 -0.1889
vn -0.9727 0.1385 -0.1864
vn 0.0000 -0.2505 0.9681
vn 0.0000 0.7835 0.6213
vn 0.9981 -0.0569 -0.0222
vn -0.8289 -0.0640 0.5557
vn 0.0000 -0.2121 0.9773
vn 0.0000 0.3097 0.9508
vn 0.0000 -0.0621 -0.9981
vn 0.0000 -0.1930 -0.9812
vn 0.0000 -0.1695 -0.9855
vn -0.0000 0.0181 -0.9998
vn 0.9655 0.2580 -0.0345
vn 0.9358 0.3095 -0.1687
vn 0.9489 0.3150 0.0190
vn 0.9484 0.2501 -0.1947
vn 0.9487 0.3158 -0.0138
vn 0.0000 0.9508 -0.3097
vn 0.9978 -0.0204 -0.0627
vn -0.9703 -0.0749 -0.2298
vn 0.0000 -0.3097 -0.9508
vn 0.0000 0.9812 -0.1930
vn 0.0000 0.1930 0.9812
vn 0.9955 -0.0183 -0.0930
vn -0.9997 -0.0045 -0.0228
vn -0.0000 0.9981 -0.0621
vn -0.9961 0.0055 0.0878
vn 0.0000 0.0621 0.9981
vn 0.9997 0.0015 0.0236
vn 0.0000 0.9998 0.0201
vn 0.9961 0.0016 -0.0885
vn 0.0000 -0.0181 0.9998
vn -0.9268 -0.0068 0.3756
vn -0.1036 0.4748 0.8740
vn 0.9798 0.0856 -0.1808
vn 0.0154 0.6167 -0.7870
vn -0.9518 -0.0478 0.3030
usemtl Material
s off
f 32/1/1 15/2/1 7/3/1 26/4/1
f 37/5/2 4/6/2 24/7/2 42/8/2
f 19/9/3 17/10/3 5/11/3 6/12/3
f 46/13/4 16/14/4 4/6/4 37/5/4
f 16/15/5 14/16/5 3/17/5 4/18/5
f 43/19/6 38/20/6 1/21/6 2/22/6
f 18/23/7 20/24/7 10/25/7 12/26/7
f 47/27/4 18/28/4 12/29/4 45/30/4
f 13/31/8 15/32/8 11/33/8 9/34/8
f 33/35/9 17/36/9 11/37/9 30/38/9
f 8/39/10 7/40/10 15/32/10 13/31/10
f 12/26/11 10/25/11 14/16/11 16/15/11
f 45/30/4 12/29/4 16/14/4 46/13/4
f 30/38/12 11/37/12 15/2/12 32/1/12
f 28/41/13 5/42/13 17/36/13 33/35/13
f 43/43/4 2/22/4 18/28/4 47/27/4
f 2/44/14 1/45/14 20/24/14 18/23/14
f 9/34/15 11/33/15 17/10/15 19/9/15
f 36/46/16 35/47/16 22/48/16 21/49/16
f 26/4/17 7/3/17 22/50/17 35/51/17
f 4/18/18 3/17/18 23/52/18 24/53/18
f 7/40/19 8/39/19 21/49/19 22/48/19
f 35/47/20 48/54/20 67/55/20 68/56/20
f 42/57/16 48/54/16 35/47/16 36/46/16
f 6/12/4 25/58/4 34/59/4 19/60/4
f 33/35/21 41/61/21 52/62/21 50/63/21
f 39/64/22 30/38/22 57/65/22 59/66/22
f 9/67/4 29/68/4 31/69/4 13/70/4
f 41/61/23 33/35/23 53/71/23 56/72/23
f 19/60/4 34/59/4 29/68/4 9/67/4
f 6/73/24 5/74/24 28/75/24 25/76/24
f 13/70/4 31/69/4 27/77/4 8/78/4
f 8/78/2 27/77/2 36/79/2 21/80/2
f 40/81/25 32/1/25 63/82/25 64/83/25
f 14/84/26 40/81/26 44/85/26 3/86/26
f 20/87/27 41/61/27 39/64/27 10/88/27
f 10/88/28 39/64/28 40/81/28 14/84/28
f 1/89/29 38/90/29 41/61/29 20/87/29
f 24/91/16 23/92/16 48/54/16 42/57/16
f 3/86/30 44/85/30 48/93/30 23/94/30
f 25/58/4 43/43/4 47/27/4 34/59/4
f 29/68/4 45/30/4 46/13/4 31/69/4
f 34/59/4 47/27/4 45/30/4 29/68/4
f 25/76/24 28/75/24 38/20/24 43/19/24
f 31/69/4 46/13/4 37/5/4 27/77/4
f 27/77/2 37/5/2 42/8/2 36/79/2
f 51/95/31 49/96/31 50/63/31 52/62/31
f 41/61/32 38/90/32 51/95/32 52/62/32
f 28/41/33 33/35/33 50/63/33 49/96/33
f 38/20/34 28/75/34 49/97/34 51/98/34
f 56/72/35 53/71/35 54/99/35 55/100/35
f 30/38/36 39/64/36 55/100/36 54/99/36
f 39/64/37 41/61/37 56/72/37 55/100/37
f 33/35/38 30/38/38 54/99/38 53/71/38
f 59/66/39 57/65/39 58/101/39 60/102/39
f 30/38/40 32/1/40 58/101/40 57/65/40
f 32/1/41 40/81/41 60/102/41 58/101/41
f 40/81/42 39/64/42 59/66/42 60/102/42
f 64/83/43 63/82/43 62/103/43 61/104/43
f 44/85/44 40/81/44 64/83/44 61/104/44
f 26/4/45 44/85/45 61/104/45 62/103/45
f 32/1/46 26/4/46 62/103/46 63/82/46
f 65/105/47 66/106/47 68/107/47 67/108/47
f 48/93/48 44/85/48 65/105/48 67/108/48
f 44/85/49 26/4/49 66/106/49 65/105/49
f 26/4/50 35/51/50 68/107/50 66/106/50
